<svg width="16" height="17" viewBox="0 0 16 17" fill="none" xmlns="http://www.w3.org/2000/svg">
<g clip-path="url(#clip0_2717_4426)">
<path opacity="0.934" fill-rule="evenodd" clip-rule="evenodd" d="M12.9531 0.734375C13.5259 0.786278 13.8384 1.09878 13.8906 1.67188C13.8176 2.32285 13.453 2.63014 12.7969 2.59375C12.6871 2.57281 12.583 2.53635 12.4844 2.48438C11.938 2.9734 11.3964 3.46819 10.8594 3.96875C11.0638 4.57013 10.8763 4.99722 10.2969 5.25C9.53011 5.35022 9.11345 5.01169 9.04686 4.23438C8.62339 4.04312 8.1963 3.87125 7.76561 3.71875C7.38424 4.05706 6.96758 4.10394 6.51561 3.85938C6.01802 4.23059 5.52324 4.60559 5.03124 4.98438C5.15164 5.72356 4.84436 6.15066 4.10936 6.26562C3.73314 6.24175 3.45708 6.06466 3.28123 5.73438C3.23683 5.56816 3.18995 5.40672 3.14061 5.25C2.73662 5.10494 2.33558 4.95391 1.93748 4.79688C1.48461 5.25459 1.00544 5.28584 0.499985 4.89062C0.163383 4.47137 0.152966 4.04431 0.468735 3.60938C0.956732 3.18596 1.4359 3.19637 1.90623 3.64062C2.03681 3.83966 2.11494 4.05841 2.14061 4.29688C2.54441 4.45925 2.95066 4.6155 3.35936 4.76562C3.74545 4.36013 4.17777 4.29763 4.65624 4.57812C5.17186 4.1875 5.68749 3.79688 6.20311 3.40625C6.04533 2.79459 6.26408 2.38834 6.85936 2.1875C7.58861 2.1301 7.97402 2.46865 8.01561 3.20312C8.41273 3.37196 8.80858 3.54383 9.20311 3.71875C9.32514 3.71331 9.42933 3.66122 9.51561 3.5625C9.83599 3.3831 10.1589 3.37789 10.4844 3.54688C11.0238 3.07137 11.5602 2.59221 12.0937 2.10938C11.9427 1.63532 12.052 1.23428 12.4219 0.90625C12.5899 0.806795 12.767 0.749503 12.9531 0.734375ZM12.9531 1.26562C13.313 1.36034 13.4223 1.57909 13.2812 1.92188C13.0521 2.13894 12.8334 2.12852 12.625 1.89062C12.5135 1.56124 12.6229 1.35291 12.9531 1.26562ZM6.95311 2.70312C7.32739 2.68677 7.48886 2.86385 7.43749 3.23438C7.29039 3.48825 7.08727 3.54554 6.82811 3.40625C6.59267 3.12185 6.63436 2.88748 6.95311 2.70312ZM1.10936 3.82812C1.50394 3.87841 1.63415 4.08672 1.49998 4.45312C1.28123 4.70312 1.06249 4.70312 0.843735 4.45312C0.717129 4.15419 0.805673 3.94584 1.10936 3.82812ZM9.95311 3.95312C10.3471 4.00209 10.4773 4.21041 10.3437 4.57812C10.125 4.82812 9.90623 4.82812 9.68748 4.57812C9.56108 4.27881 9.64964 4.07047 9.95311 3.95312ZM4.04686 4.92188C4.32517 4.91994 4.48142 5.05538 4.51561 5.32812C4.49739 5.57031 4.3672 5.70572 4.12498 5.73438C3.76067 5.64113 3.65649 5.42238 3.81248 5.07812C3.8883 5.01713 3.96642 4.96503 4.04686 4.92188Z" fill="#586A84"/>
<path opacity="0.939" fill-rule="evenodd" clip-rule="evenodd" d="M12.1719 3.70313C12.7032 3.69791 13.2345 3.70313 13.7656 3.71875C13.838 3.75341 13.8848 3.81072 13.9062 3.89063C13.9166 5.49479 13.9271 7.09897 13.9375 8.70313C15.1127 9.69769 15.519 10.9477 15.1562 12.4531C15.1006 12.6476 15.0277 12.8351 14.9375 13.0156C14.8439 13.102 14.7345 13.1281 14.6094 13.0938C13.7545 12.7047 12.9056 12.3036 12.0625 11.8906C12.0521 12.8698 12.0416 13.849 12.0312 14.8281C11.9801 14.9003 11.9124 14.9472 11.8281 14.9688C10.2374 14.9159 9.12806 14.1607 8.49999 12.7031C8.08512 11.4737 8.26221 10.3383 9.03124 9.29688C9.04165 8.42188 9.05209 7.54688 9.06249 6.67188C9.08852 6.5625 9.15624 6.49479 9.26562 6.46875C9.79896 6.43885 10.3302 6.44925 10.8594 6.5C10.9215 6.54122 10.9579 6.5985 10.9687 6.67188C10.9844 7.1301 10.9896 7.58844 10.9844 8.04688C11.3246 7.98129 11.6684 7.95004 12.0156 7.95313C12.0104 6.5885 12.0156 5.22391 12.0312 3.85938C12.0633 3.79104 12.1101 3.73894 12.1719 3.70313ZM12.5469 4.23438C12.8281 4.23438 13.1094 4.23438 13.3906 4.23438C13.401 5.59913 13.3906 6.96369 13.3594 8.32813C13.1011 8.19691 12.8303 8.10316 12.5469 8.04688C12.5469 6.77604 12.5469 5.50522 12.5469 4.23438ZM9.57812 6.98438C9.86977 6.98438 10.1615 6.98438 10.4531 6.98438C10.4635 7.40157 10.4531 7.81822 10.4219 8.23438C10.1183 8.35744 9.84224 8.5241 9.59374 8.73438C9.57812 8.15113 9.5729 7.56782 9.57812 6.98438ZM11.2969 8.51563C11.3698 8.51563 11.4427 8.51563 11.5156 8.51563C11.5156 9.41147 11.5156 10.3073 11.5156 11.2031C10.6198 11.2031 9.72396 11.2031 8.82812 11.2031C9.04409 9.74763 9.86702 8.85182 11.2969 8.51563ZM12.0469 8.51563C13.2817 8.67232 14.1307 9.32857 14.5937 10.4844C14.8314 11.1573 14.821 11.824 14.5625 12.4844C13.7291 12.0885 12.8958 11.6927 12.0625 11.2969C12.0469 10.3698 12.0416 9.44279 12.0469 8.51563ZM8.82812 11.7344C9.72396 11.7344 10.6198 11.7344 11.5156 11.7344C11.5156 12.6302 11.5156 13.526 11.5156 14.4219C10.4126 14.2796 9.60527 13.7171 9.09374 12.7344C8.95093 12.4153 8.8624 12.082 8.82812 11.7344Z" fill="#586A84"/>
<path opacity="0.941" fill-rule="evenodd" clip-rule="evenodd" d="M6.29688 5.51563C6.81782 5.51041 7.33866 5.51563 7.85938 5.53125C7.9271 5.55729 7.97398 5.60416 8.00001 5.67188C8.02085 7.41147 8.02085 9.15104 8.00001 10.8906C7.96535 10.963 7.90804 11.0098 7.82813 11.0313C7.32813 11.0521 6.82813 11.0521 6.32813 11.0313C6.2321 11.0082 6.16438 10.9509 6.12501 10.8594C6.10416 9.14063 6.10416 7.42188 6.12501 5.70313C6.15691 5.61407 6.2142 5.55157 6.29688 5.51563ZM6.64063 6.04688C6.92188 6.04688 7.20313 6.04688 7.48438 6.04688C7.48438 7.53647 7.48438 9.02604 7.48438 10.5156C7.20313 10.5156 6.92188 10.5156 6.64063 10.5156C6.64063 9.02604 6.64063 7.53647 6.64063 6.04688Z" fill="#586A84"/>
<path opacity="0.959" fill-rule="evenodd" clip-rule="evenodd" d="M0.390625 6.35938C0.911563 6.35416 1.4324 6.35938 1.95313 6.375C2.03125 6.41147 2.08854 6.46875 2.125 6.54688C2.14583 7.97397 2.14583 9.40104 2.125 10.8281C2.11419 10.9015 2.07773 10.9588 2.01563 11C1.48646 11.0508 0.955206 11.0612 0.421875 11.0313C0.336509 11.0188 0.279218 10.9719 0.25 10.8906C0.229167 9.42188 0.229167 7.95313 0.25 6.48438C0.293651 6.43532 0.340525 6.39363 0.390625 6.35938ZM0.734375 6.89063C1.02604 6.89063 1.31771 6.89063 1.60938 6.89063C1.60938 8.09897 1.60938 9.30729 1.60938 10.5156C1.31771 10.5156 1.02604 10.5156 0.734375 10.5156C0.734375 9.30729 0.734375 8.09897 0.734375 6.89063Z" fill="#586A84"/>
<path opacity="0.942" fill-rule="evenodd" clip-rule="evenodd" d="M3.32813 7.85938C3.85948 7.85416 4.39073 7.85938 4.92188 7.875C4.9666 7.88954 5.00304 7.9156 5.03126 7.95313C5.08285 8.91919 5.09326 9.88794 5.06251 10.8594C5.03798 10.9152 5.00154 10.9621 4.95313 11C4.42398 11.0508 3.89273 11.0612 3.35938 11.0313C3.28316 11.0071 3.22585 10.9602 3.18751 10.8906C3.16666 9.93229 3.16666 8.97397 3.18751 8.01563C3.21954 7.94729 3.26641 7.89519 3.32813 7.85938ZM3.70313 8.39063C3.98438 8.39063 4.26563 8.39063 4.54688 8.39063C4.54688 9.09897 4.54688 9.80729 4.54688 10.5156C4.26563 10.5156 3.98438 10.5156 3.70313 10.5156C3.70313 9.80729 3.70313 9.09897 3.70313 8.39063Z" fill="#586A84"/>
<path opacity="0.935" fill-rule="evenodd" clip-rule="evenodd" d="M12.4531 12.4531C12.5268 12.448 12.5997 12.4532 12.6719 12.4687C13.5744 12.9043 14.4806 13.3314 15.3906 13.7499C15.5131 13.7981 15.6225 13.8658 15.7188 13.9531C15.7396 14.0468 15.7396 14.1406 15.7188 14.2343C15.0522 15.5003 14.0002 16.167 12.5625 16.2343C12.4558 16.2216 12.3724 16.1696 12.3125 16.0781C12.2917 14.9218 12.2917 13.7656 12.3125 12.6093C12.3445 12.541 12.3914 12.4889 12.4531 12.4531ZM12.8281 13.1406C13.5925 13.4967 14.3529 13.8613 15.1094 14.2343C14.5758 15.0691 13.8154 15.5482 12.8281 15.6718C12.8281 14.8281 12.8281 13.9843 12.8281 13.1406Z" fill="#586A84"/>
</g>
<defs>
<clipPath id="clip0_2717_4426">
<rect width="16" height="16" fill="white" transform="translate(0 0.5)"/>
</clipPath>
</defs>
</svg>
