<svg width="16" height="17" viewBox="0 0 16 17" fill="none" xmlns="http://www.w3.org/2000/svg">
<g clip-path="url(#clip0_2717_4394)">
<path opacity="0.959" fill-rule="evenodd" clip-rule="evenodd" d="M7.35936 0.484375C7.80727 0.484375 8.25521 0.484375 8.70311 0.484375C11.4777 0.817722 13.5558 2.19272 14.9375 4.60938C16.1183 6.98506 16.16 9.38091 15.0625 11.7969C13.6865 14.4053 11.5251 15.8688 8.57811 16.1875C7.46646 16.2621 6.38311 16.1215 5.32811 15.7656C3.98811 15.9924 2.65478 16.232 1.32811 16.4844C1.1927 16.4844 1.05728 16.4844 0.921863 16.4844C0.70435 16.3752 0.615806 16.1981 0.656238 15.9531C1.03236 15.0499 1.41257 14.1488 1.79686 13.25C-0.000389695 10.7733 -0.349347 8.10138 0.749988 5.23438C1.81128 2.92329 3.56649 1.41808 6.01561 0.71875C6.4633 0.612919 6.91121 0.534794 7.35936 0.484375ZM7.51561 1.35938C10.4031 1.29481 12.5958 2.48231 14.0937 4.92188C15.2649 7.16647 15.2754 9.41647 14.125 11.6719C12.7725 13.987 10.7465 15.2058 8.04686 15.3281C7.61746 15.3183 7.19036 15.2818 6.76561 15.2188C6.30258 15.1147 5.84424 14.9949 5.39061 14.8594C4.20458 15.0539 3.02229 15.2622 1.84374 15.4844C2.13265 14.7644 2.43473 14.0457 2.74999 13.3281C2.77709 13.1889 2.76667 13.0535 2.71874 12.9219C1.20314 11.0779 0.703138 8.98419 1.21874 6.64062C1.86809 4.335 3.30039 2.72562 5.51561 1.8125C6.16721 1.575 6.83386 1.42396 7.51561 1.35938Z" fill="#586A84"/>
<path opacity="0.965" fill-rule="evenodd" clip-rule="evenodd" d="M5.17189 6.76563C6.04695 6.76041 6.92195 6.76563 7.79689 6.78125C8.0408 6.89941 8.12933 7.0921 8.06252 7.35938C8.01258 7.5031 7.91361 7.59163 7.76564 7.625C6.91148 7.64585 6.0573 7.64585 5.20314 7.625C4.8897 7.47641 4.81158 7.24204 4.96876 6.92188C5.03017 6.85782 5.09789 6.80572 5.17189 6.76563Z" fill="#586A84"/>
<path opacity="0.943" fill-rule="evenodd" clip-rule="evenodd" d="M5.26561 8.89063C7.07814 8.88541 8.89064 8.89063 10.7031 8.90625C11.0501 9.0085 11.1595 9.23247 11.0312 9.57813C10.9573 9.68341 10.8584 9.75113 10.7344 9.78125C8.90102 9.8021 7.06771 9.8021 5.23436 9.78125C4.89705 9.64282 4.80849 9.40844 4.96874 9.07813C5.04846 8.97872 5.14742 8.91622 5.26561 8.89063Z" fill="#586A84"/>
</g>
<defs>
<clipPath id="clip0_2717_4394">
<rect width="16" height="16" fill="white" transform="translate(0 0.5)"/>
</clipPath>
</defs>
</svg>
