<svg width="17" height="17" viewBox="0 0 17 17" fill="none" xmlns="http://www.w3.org/2000/svg">
<g clip-path="url(#clip0_2717_4502)">
<path opacity="0.938" fill-rule="evenodd" clip-rule="evenodd" d="M6.95313 0.671875C8.8036 0.698087 10.0276 1.5835 10.625 3.32812C10.9667 4.94959 10.4823 6.25691 9.17188 7.25C7.81016 8.07066 6.45597 8.06025 5.10938 7.21875C3.72932 6.13184 3.2866 4.74122 3.78125 3.04688C4.36222 1.61672 5.4195 0.825053 6.95313 0.671875ZM6.76563 1.29688C8.24903 1.21267 9.30632 1.83767 9.9375 3.17188C10.3895 4.57584 10.051 5.74772 8.92188 6.6875C7.75357 7.45784 6.58688 7.45784 5.42188 6.6875C4.28688 5.76819 3.93791 4.60672 4.375 3.20312C4.83041 2.13948 5.62728 1.50407 6.76563 1.29688Z" fill="#EEF0F4"/>
<path opacity="0.949" fill-rule="evenodd" clip-rule="evenodd" d="M13.5781 6.10938C14.2877 6.15378 14.7305 6.51837 14.9062 7.20312C14.9219 7.47375 14.9271 7.74459 14.9219 8.01562C15.3454 7.94031 15.7048 8.05491 16 8.35938C16.0761 8.46234 16.1282 8.57694 16.1562 8.70312C16.2466 10.0783 16.3352 11.4533 16.4219 12.8281C16.3849 13.2762 16.1557 13.5731 15.7344 13.7188C15.047 13.7344 14.3595 13.7396 13.6719 13.7344C13.4551 15.1012 12.6738 15.9398 11.3281 16.25C8.54687 16.2708 5.76562 16.2708 2.98437 16.25C1.68976 15.9449 0.913724 15.1376 0.656246 13.8281C0.373768 12.0929 0.790435 10.5513 1.90625 9.20312C2.61149 8.44712 3.48128 8.10859 4.51562 8.1875C4.7805 8.367 5.0409 8.5545 5.29687 8.75C6.28743 9.35962 7.32909 9.46378 8.42187 9.0625C8.92253 8.83325 9.38087 8.54159 9.79687 8.1875C10.2755 8.12944 10.7391 8.18672 11.1875 8.35938C11.4963 8.05934 11.8661 7.94475 12.2969 8.01562C12.2853 7.69097 12.3009 7.36803 12.3437 7.04688C12.563 6.47838 12.9745 6.16587 13.5781 6.10938ZM13.5469 6.70312C13.9304 6.71697 14.1856 6.90447 14.3125 7.26562C14.3281 7.51541 14.3333 7.76541 14.3281 8.01562C13.849 8.01562 13.3698 8.01562 12.8906 8.01562C12.8777 7.73181 12.8933 7.45056 12.9375 7.17188C13.066 6.91259 13.2691 6.75634 13.5469 6.70312ZM11.8594 8.60938C12.0052 8.60938 12.151 8.60938 12.2969 8.60938C12.2917 8.89081 12.2969 9.17206 12.3125 9.45312C12.4354 9.64919 12.5968 9.68563 12.7969 9.5625C12.8269 9.51816 12.8529 9.47128 12.875 9.42188C12.8906 9.15125 12.8958 8.88041 12.8906 8.60938C13.3698 8.60938 13.849 8.60938 14.3281 8.60938C14.3229 8.88041 14.3281 9.15125 14.3437 9.42188C14.4525 9.64534 14.6139 9.69222 14.8281 9.5625C14.8657 9.53428 14.8917 9.49784 14.9062 9.45312C14.9219 9.17206 14.9271 8.89081 14.9219 8.60938C15.1176 8.58975 15.3051 8.61578 15.4844 8.6875C15.5144 8.73184 15.5404 8.77872 15.5625 8.82812C15.6559 10.1667 15.7445 11.5052 15.8281 12.8438C15.8024 12.9737 15.7294 13.0675 15.6094 13.125C14.3073 13.1458 13.0052 13.1458 11.7031 13.125C11.6131 13.0859 11.5558 13.0182 11.5312 12.9219C11.549 11.6302 11.5803 10.3385 11.625 9.04688C11.5985 8.83925 11.6766 8.69341 11.8594 8.60938ZM3.85937 8.76562C4.01596 8.76044 4.17221 8.76566 4.32812 8.78125C5.85368 10.0641 7.49953 10.2412 9.26562 9.3125C9.5219 9.15828 9.7615 8.98122 9.98437 8.78125C10.3422 8.74194 10.6859 8.794 11.0156 8.9375C10.9994 10.1623 10.9682 11.3915 10.9219 12.625C10.872 13.1088 11.0595 13.463 11.4844 13.6875C12.0143 13.7222 12.5456 13.7482 13.0781 13.7656C12.794 14.9772 12.0335 15.623 10.7969 15.7031C10.8021 14.7343 10.7969 13.7656 10.7812 12.7969C10.7292 12.6849 10.6407 12.6328 10.5156 12.6406C10.3457 12.6386 10.2468 12.7219 10.2187 12.8906C10.2031 13.8281 10.1979 14.7656 10.2031 15.7031C8.17187 15.7031 6.14062 15.7031 4.10937 15.7031C4.11459 14.7448 4.10937 13.7864 4.09375 12.8281C4.00578 12.651 3.86515 12.5937 3.67187 12.6562C3.61317 12.7045 3.5663 12.7618 3.53125 12.8281C3.51562 13.7864 3.51041 14.7448 3.51562 15.7031C2.38309 15.6381 1.64872 15.0652 1.3125 13.9844C0.975012 12.5155 1.23543 11.1614 2.09375 9.92188C2.54055 9.3125 3.12909 8.92709 3.85937 8.76562Z" fill="#EEF0F4"/>
</g>
<defs>
<clipPath id="clip0_2717_4502">
<rect width="16" height="16" fill="white" transform="translate(0.5 0.5)"/>
</clipPath>
</defs>
</svg>
