<svg width="16" height="17" viewBox="0 0 16 17" fill="none" xmlns="http://www.w3.org/2000/svg">
<path d="M3.33791 1.09459C3.3379 1.09459 3.3379 1.0946 3.33789 1.0946L0.593252 3.83896C0.59323 3.83898 0.593208 3.839 0.593186 3.83903C0.153932 4.27863 0.136471 4.9855 0.541181 5.44621L1.66853 6.57715L1.66882 6.57745L3.41545 8.3238L3.59226 8.50059L3.41546 8.67738L0.593198 11.4994C0.593195 11.4994 0.593191 11.4994 0.593188 11.4994C0.135615 11.957 0.135595 12.7047 0.593183 13.1624C0.593192 13.1624 0.5932 13.1624 0.593208 13.1624L3.33784 15.9067L3.16108 16.0835L3.33785 15.9067C3.79557 16.3644 4.54337 16.3644 5.0011 15.9067C5.0011 15.9067 5.0011 15.9067 5.00111 15.9067L6.76154 14.1462L6.76157 14.1462L7.82343 13.0847L7.82346 13.0847L8.62692 12.2811L8.62695 12.2811L9.04344 11.8645L9.0435 11.8644L10.4518 10.4564L10.6286 10.2797L10.8054 10.4565L12.5031 12.154L12.6799 12.3308L12.5032 12.5076L12.0075 13.0034L11.8307 13.1802L11.6539 13.0034L10.8018 12.1515L10.5981 12.848L11.8305 14.0803L13.5802 12.3308L10.6286 9.37948L8.17698 11.831L8.00023 12.0077L7.82345 11.831L5.37146 9.37947L2.41999 12.3308L4.16954 14.0803L5.4018 12.848L5.19828 12.1516L4.3463 13.0034L4.1695 13.1802L3.99274 13.0033L3.49712 12.5076L3.3204 12.3308L3.49714 12.1541L5.19467 10.4565L5.37142 10.2797L5.5482 10.4564L7.37331 12.2811L7.55015 12.4579L7.37332 12.6347L4.54793 15.4597C4.54791 15.4597 4.54789 15.4597 4.54787 15.4597C4.33924 15.6684 3.99962 15.6683 3.79102 15.4597L1.0405 12.7094L1.0404 12.7093C0.831981 12.5007 0.832056 12.1613 1.04035 11.9526L1.0405 11.9525L4.49231 8.50059L3.33791 1.09459ZM3.33791 1.09459C3.79669 0.635968 4.54728 0.634706 4.99993 1.0934L4.99994 1.09341L6.71924 2.8355L6.5159 3.53083M3.33791 1.09459L6.5159 3.53083M6.5159 3.53083L4.54896 1.54277C4.54891 1.54272 4.54887 1.54268 4.54882 1.54263C4.33993 1.33132 3.99865 1.33369 3.79086 1.54183L3.79101 1.54168L6.5159 3.53083ZM9.46743 13.4848L11.4526 15.46L11.4528 15.4601L9.46743 13.4848ZM9.46743 13.4848L9.26341 14.1819L9.46743 13.4848ZM7.32737 8.32374L7.15041 8.50055L7.32733 8.6774L7.82347 9.17337L8.0003 9.35015L8.17705 9.17328L8.67267 8.67731L8.84931 8.50055L8.67262 8.32383L8.177 7.82812L8.0003 7.65139L7.82351 7.82803L7.32737 8.32374ZM8.0002 6.75137L9.74957 8.5006L8.0002 10.25L6.25067 8.5006L8.0002 6.75137Z" stroke="#586A84" stroke-width="0.5"/>
<path d="M14.2244 8.57107C14.1853 8.53202 14.1853 8.4687 14.2244 8.42964L14.7185 7.93554C14.7815 7.87255 14.8892 7.91716 14.8892 8.00625V8.99443C14.8892 9.08352 14.7815 9.12814 14.7185 9.06515L14.2244 8.57107Z" stroke="#586A84" stroke-width="0.2"/>
<path d="M7.92912 14.7243C7.96817 14.6853 8.03149 14.6853 8.07054 14.7243L8.56467 15.2184C8.62767 15.2814 8.58305 15.3891 8.49396 15.3891H7.50577C7.41668 15.3891 7.37207 15.2814 7.43506 15.2184L7.92912 14.7243Z" stroke="#586A84" stroke-width="0.2"/>
<path d="M1.77511 8.42964C1.81416 8.4687 1.81416 8.53202 1.77511 8.57107L1.28096 9.06515C1.21796 9.12814 1.11025 9.08352 1.11025 8.99443V8.00625C1.11025 7.91716 1.21796 7.87255 1.28096 7.93554L1.77511 8.42964Z" stroke="#586A84" stroke-width="0.2"/>
<path d="M7.92947 14.6448C7.96852 14.6058 8.03184 14.6058 8.07089 14.6448L8.72218 15.2961C8.78517 15.3591 8.74055 15.4668 8.65146 15.4668H7.34882C7.25973 15.4668 7.21511 15.3591 7.27811 15.2961L7.92947 14.6448ZM14.1454 8.57063C14.1064 8.53158 14.1064 8.46825 14.1454 8.4292L14.7969 7.77793C14.8599 7.71495 14.9676 7.75957 14.9676 7.84865V9.15122C14.9676 9.2403 14.8599 9.28492 14.7969 9.22193L14.1454 8.57063ZM8.07071 2.35513C8.03165 2.39418 7.96834 2.39417 7.92929 2.35512L7.278 1.70382C7.21501 1.64082 7.25963 1.53311 7.34871 1.53311H8.65136C8.74045 1.53311 8.78507 1.64082 8.72207 1.70382L8.07071 2.35513ZM1.85475 8.42932C1.89381 8.46838 1.89381 8.5317 1.85475 8.57076L1.20332 9.22202C1.14032 9.28501 1.03262 9.24039 1.03262 9.1513V7.84874C1.03262 7.75965 1.14032 7.71503 1.20332 7.77802L1.85475 8.42932Z" stroke="#586A84" stroke-width="0.2"/>
</svg>
