<svg width="16" height="17" viewBox="0 0 16 17" fill="none" xmlns="http://www.w3.org/2000/svg">
<g clip-path="url(#clip0_2717_4441)">
<path opacity="0.947" fill-rule="evenodd" clip-rule="evenodd" d="M15.9844 7.85942C15.9844 9.70317 15.9844 11.5469 15.9844 13.3907C15.9467 13.4761 15.8998 13.5595 15.8438 13.6407C15.0781 14.4063 14.3125 15.1719 13.5469 15.9375C13.4264 16.0264 13.2909 16.0785 13.1406 16.0938C11.2135 16.1146 9.28647 16.1146 7.35938 16.0938C7.19728 16.0763 7.05144 16.019 6.92188 15.9219C6.78575 16.0057 6.63994 16.063 6.48438 16.0938C4.54688 16.1146 2.60938 16.1146 0.671875 16.0938C0.322272 16.0395 0.0931038 15.8468 -0.015625 15.5157C-0.015625 13.5886 -0.015625 11.6615 -0.015625 9.73442C0.0421116 9.57273 0.135862 9.43211 0.265625 9.31255C1.18828 8.7002 2.09453 8.0648 2.98438 7.4063C3.11811 7.3208 3.26394 7.27392 3.42188 7.26567C3.41666 6.01564 3.42188 4.76564 3.4375 3.51567C3.45412 3.28973 3.54266 3.09702 3.70312 2.93755C4.63075 2.30709 5.54741 1.66125 6.45312 1.00005C6.52241 0.960191 6.59534 0.928941 6.67188 0.906297C8.47281 0.854841 10.2749 0.844425 12.0781 0.875047C12.4513 0.935741 12.6857 1.14928 12.7812 1.51567C12.8021 3.31776 12.8021 5.11983 12.7812 6.92192C12.7598 7.03783 12.7129 7.14202 12.6406 7.23442C13.5363 7.26045 14.4321 7.27608 15.3281 7.2813C15.6613 7.34908 15.88 7.5418 15.9844 7.85942ZM6.89062 1.42192C7.50528 1.41672 8.11987 1.42192 8.73438 1.43755C8.19272 1.86463 7.65103 2.29171 7.10938 2.7188C6.42188 2.73963 5.73438 2.73963 5.04688 2.7188C5.65366 2.27008 6.26825 1.83779 6.89062 1.42192ZM9.67188 1.42192C10.3699 1.41672 11.0678 1.42192 11.7656 1.43755C11.2473 1.90921 10.7161 2.36234 10.1719 2.79692C10.1094 2.7813 10.0469 2.76567 9.98438 2.75005C9.33853 2.73963 8.69272 2.72921 8.04688 2.7188C8.59641 2.29342 9.13809 1.86112 9.67188 1.42192ZM12.1719 1.82817C12.2135 2.65083 12.2344 3.48416 12.2344 4.32817C12.2292 5.16152 12.224 5.99483 12.2188 6.82817C11.7197 7.35855 11.2092 7.87936 10.6875 8.39067C10.6771 6.73442 10.6667 5.07817 10.6562 3.42192C10.6431 3.36394 10.6274 3.30665 10.6094 3.25005C11.125 2.77092 11.6458 2.29696 12.1719 1.82817ZM4.17188 3.29692C6.11197 3.28153 8.04947 3.29716 9.98438 3.3438C10.0465 3.38501 10.0829 3.44231 10.0938 3.51567C10.1246 5.35083 10.1142 7.18414 10.0625 9.01567C10.0246 9.06408 9.97769 9.10052 9.92188 9.12505C7.98256 9.15595 6.04506 9.14552 4.10938 9.0938C4.04362 9.02999 4.00716 8.95186 4 8.85942C3.97916 7.08858 3.97916 5.31777 4 3.54692C4.01953 3.43413 4.07681 3.3508 4.17188 3.29692ZM3.39062 7.82817C3.41659 8.18733 3.43222 8.55189 3.4375 8.92192C3.44488 8.99267 3.4605 9.06039 3.48438 9.12505C2.83854 9.14589 2.19271 9.14589 1.54688 9.12505C2.16708 8.69705 2.78166 8.26473 3.39062 7.82817ZM12.0469 7.82817C13.0261 7.82295 14.0052 7.82817 14.9844 7.8438C14.4844 8.2813 13.9844 8.7188 13.4844 9.1563C13.4024 9.2127 13.3191 9.2127 13.2344 9.1563C12.4115 9.14589 11.5885 9.13545 10.7656 9.12505C11.199 8.69689 11.6261 8.26458 12.0469 7.82817ZM15.3906 8.23442C15.427 9.90623 15.4323 11.5833 15.4062 13.2657C14.8958 13.7761 14.3854 14.2865 13.875 14.7969C13.8646 13.1198 13.8542 11.4428 13.8438 9.76567C13.8352 9.71564 13.8196 9.66877 13.7969 9.62505C14.3304 9.16095 14.8616 8.69742 15.3906 8.23442ZM0.703125 9.70317C2.63024 9.69795 4.55731 9.70317 6.48438 9.7188C6.54306 9.76702 6.58994 9.8243 6.625 9.89067C6.65588 11.7362 6.64547 13.58 6.59375 15.4219C6.55253 15.484 6.49525 15.5205 6.42188 15.5313C4.52603 15.5521 2.63021 15.5521 0.734375 15.5313C0.654459 15.5099 0.597169 15.463 0.5625 15.3907C0.541666 13.5469 0.541666 11.7032 0.5625 9.85942C0.594531 9.79108 0.641406 9.73899 0.703125 9.70317ZM7.35938 9.70317C9.30988 9.68777 11.2578 9.70339 13.2031 9.75005C13.2407 9.77827 13.2667 9.8147 13.2812 9.85942C13.3123 11.7162 13.3018 13.5703 13.25 15.4219C13.2088 15.484 13.1515 15.5205 13.0781 15.5313C11.1597 15.5622 9.243 15.5518 7.32812 15.5C7.27972 15.4621 7.24328 15.4152 7.21875 15.3594C7.19791 13.5261 7.19791 11.6928 7.21875 9.85942C7.25078 9.79108 7.29766 9.73899 7.35938 9.70317Z" fill="#586A84"/>
<path opacity="0.943" fill-rule="evenodd" clip-rule="evenodd" d="M4.85938 7.01563C5.33866 7.01041 5.81782 7.01563 6.29688 7.03125C6.49129 7.09135 6.61107 7.22157 6.65626 7.42188C6.6771 7.68229 6.6771 7.94272 6.65626 8.20313C6.59541 8.44107 6.44438 8.58169 6.20313 8.625C5.78648 8.64585 5.36979 8.64585 4.95313 8.625C4.74082 8.58919 4.6002 8.46941 4.53126 8.26563C4.51041 7.96354 4.51041 7.66147 4.53126 7.35938C4.60491 7.20766 4.71429 7.0931 4.85938 7.01563ZM5.07813 7.57813C5.07813 7.74479 5.07813 7.91147 5.07813 8.07813C5.42188 8.07813 5.76563 8.07813 6.10938 8.07813C6.10938 7.91147 6.10938 7.74479 6.10938 7.57813C5.76563 7.57813 5.42188 7.57813 5.07813 7.57813Z" fill="#586A84"/>
<path opacity="0.919" fill-rule="evenodd" clip-rule="evenodd" d="M8.39062 7.01563C8.74493 7.01041 9.09912 7.01563 9.45312 7.03125C9.63203 7.16557 9.65287 7.32182 9.51562 7.5C9.46603 7.52694 9.41393 7.54779 9.35937 7.5625C9.02418 7.59072 8.69084 7.58029 8.35937 7.53125C8.1899 7.346 8.20031 7.17413 8.39062 7.01563Z" fill="#586A84"/>
<path opacity="0.92" fill-rule="evenodd" clip-rule="evenodd" d="M8.39062 8.07813C8.74493 8.07291 9.09912 8.07813 9.45312 8.09375C9.67462 8.30107 9.65378 8.47816 9.39062 8.625C9.07812 8.64585 8.76562 8.64585 8.45312 8.625C8.22284 8.52141 8.17596 8.35994 8.31249 8.14063C8.34359 8.12294 8.36962 8.1021 8.39062 8.07813Z" fill="#586A84"/>
<path opacity="0.944" fill-rule="evenodd" clip-rule="evenodd" d="M1.51563 13.3906C1.92201 13.3854 2.32826 13.3906 2.73438 13.4063C2.97561 13.4496 3.12666 13.5902 3.1875 13.8281C3.20834 14.0885 3.20834 14.349 3.1875 14.6094C3.11536 14.872 2.94348 15.0126 2.67188 15.0313C2.29688 15.0521 1.92188 15.0521 1.54688 15.0313C1.31456 15.0073 1.1531 14.8875 1.0625 14.6719C1.04167 14.3698 1.04167 14.0677 1.0625 13.7656C1.15438 13.564 1.30542 13.439 1.51563 13.3906ZM1.60938 13.9531C1.60938 14.1302 1.60938 14.3073 1.60938 14.4844C1.95313 14.4844 2.29688 14.4844 2.64063 14.4844C2.64063 14.3073 2.64063 14.1302 2.64063 13.9531C2.29688 13.9531 1.95313 13.9531 1.60938 13.9531Z" fill="#586A84"/>
<path opacity="0.921" fill-rule="evenodd" clip-rule="evenodd" d="M5.01561 13.3908C5.34099 13.3775 5.66393 13.3931 5.98436 13.4377C6.19271 13.6044 6.19271 13.771 5.98436 13.9377C5.63021 13.9585 5.27602 13.9585 4.92186 13.9377C4.76693 13.8302 4.73046 13.6896 4.81249 13.5158C4.87539 13.4612 4.94311 13.4195 5.01561 13.3908Z" fill="#586A84"/>
<path opacity="0.943" fill-rule="evenodd" clip-rule="evenodd" d="M8.17188 13.3906C8.57826 13.3854 8.98451 13.3906 9.39063 13.4063C9.61923 13.4474 9.77026 13.5776 9.84376 13.7969C9.8646 14.0781 9.8646 14.3594 9.84376 14.6406C9.76632 14.8742 9.60488 15.0044 9.35938 15.0313C8.97398 15.0521 8.58854 15.0521 8.20313 15.0313C7.95841 15.0054 7.79695 14.8752 7.71876 14.6406C7.69791 14.3594 7.69791 14.0781 7.71876 13.7969C7.79763 13.5772 7.94866 13.4418 8.17188 13.3906ZM8.26563 13.9531C8.26563 14.1302 8.26563 14.3073 8.26563 14.4844C8.60938 14.4844 8.95313 14.4844 9.29688 14.4844C9.29688 14.3073 9.29688 14.1302 9.29688 13.9531C8.95313 13.9531 8.60938 13.9531 8.26563 13.9531Z" fill="#586A84"/>
<path opacity="0.921" fill-rule="evenodd" clip-rule="evenodd" d="M11.6719 13.3904C12.0077 13.377 12.341 13.3926 12.6719 13.4373C12.7853 13.5326 12.8218 13.6524 12.7813 13.7966C12.7552 13.8644 12.7084 13.9112 12.6406 13.9373C12.2865 13.9581 11.9323 13.9581 11.5781 13.9373C11.3638 13.7109 11.395 13.5287 11.6719 13.3904Z" fill="#586A84"/>
<path opacity="0.92" fill-rule="evenodd" clip-rule="evenodd" d="M4.92187 14.4844C5.27618 14.4792 5.63037 14.4844 5.98437 14.5C6.16293 14.6329 6.18377 14.7892 6.04687 14.9688C5.99727 14.9957 5.94518 15.0165 5.89062 15.0313C5.59896 15.0521 5.30727 15.0521 5.01562 15.0313C4.78577 14.9571 4.71805 14.8061 4.81249 14.5781C4.84827 14.5426 4.88474 14.5114 4.92187 14.4844Z" fill="#586A84"/>
<path opacity="0.928" fill-rule="evenodd" clip-rule="evenodd" d="M11.5781 14.4844C11.9324 14.4792 12.2866 14.4844 12.6406 14.5C12.7834 14.5794 12.8303 14.6992 12.7813 14.8594C12.7381 14.9651 12.66 15.0224 12.5469 15.0313C12.2221 15.0593 11.8992 15.0489 11.5781 15C11.3772 14.83 11.3772 14.6582 11.5781 14.4844Z" fill="#586A84"/>
</g>
<defs>
<clipPath id="clip0_2717_4441">
<rect width="16" height="16" fill="white" transform="translate(0 0.5)"/>
</clipPath>
</defs>
</svg>
