<svg width="16" height="17" viewBox="0 0 16 17" fill="none" xmlns="http://www.w3.org/2000/svg">
<g clip-path="url(#clip0_2717_4485)">
<path opacity="0.989" fill-rule="evenodd" clip-rule="evenodd" d="M2.79686 0.984375C6.25521 0.979166 9.71355 0.984375 13.1719 1C13.595 1.08884 13.9231 1.3128 14.1562 1.67188C14.5937 2.54688 15.0312 3.42188 15.4687 4.29688C15.4896 4.90103 15.4896 5.50522 15.4687 6.10938C15.3593 6.74425 15.0416 7.24425 14.5156 7.60938C14.4844 10.0676 14.474 12.526 14.4844 14.9844C14.7138 14.9792 14.9429 14.9844 15.1719 15C15.4526 15.1398 15.5515 15.3638 15.4687 15.6719C15.4115 15.8125 15.3125 15.9115 15.1719 15.9688C10.3802 15.9896 5.58852 15.9896 0.796863 15.9688C0.516169 15.829 0.41721 15.605 0.499988 15.2969C0.557279 15.1562 0.656238 15.0573 0.796863 15C1.02579 14.9844 1.25496 14.9792 1.48436 14.9844C1.49478 12.526 1.48436 10.0676 1.45311 7.60938C0.927138 7.24425 0.609429 6.74425 0.499988 6.10938C0.479154 5.50522 0.479154 4.90103 0.499988 4.29688C0.950332 3.38576 1.40867 2.47951 1.87499 1.57813C2.11355 1.27155 2.42084 1.07364 2.79686 0.984375ZM3.10936 1.98438C6.35939 1.97917 9.6094 1.98438 12.8594 2C13.0424 2.00198 13.1831 2.0801 13.2812 2.23438C13.5677 2.80729 13.8541 3.38021 14.1406 3.95313C10.0365 3.99478 5.93227 3.99478 1.82811 3.95313C2.11457 3.38021 2.40103 2.80729 2.68749 2.23438C2.79257 2.08377 2.93319 2.00043 3.10936 1.98438ZM1.48436 4.98438C2.3177 4.98438 3.15102 4.98438 3.98436 4.98438C3.99299 5.31897 3.97736 5.65228 3.93749 5.98438C3.69027 6.76181 3.16424 7.06913 2.35936 6.90625C1.91854 6.74669 1.6425 6.43941 1.53124 5.98438C1.49136 5.65228 1.47574 5.31897 1.48436 4.98438ZM4.98436 4.98438C5.81771 4.98438 6.65102 4.98438 7.48436 4.98438C7.49299 5.31897 7.47736 5.65228 7.43749 5.98438C7.19027 6.76181 6.66424 7.06913 5.85936 6.90625C5.41855 6.74669 5.14249 6.43941 5.03124 5.98438C4.99136 5.65228 4.97574 5.31897 4.98436 4.98438ZM8.48436 4.98438C9.31771 4.98438 10.151 4.98438 10.9844 4.98438C10.993 5.31897 10.9774 5.65228 10.9375 5.98438C10.6903 6.76181 10.1642 7.06913 9.35936 6.90625C8.91855 6.74669 8.64249 6.43941 8.53124 5.98438C8.49136 5.65228 8.47574 5.31897 8.48436 4.98438ZM11.9844 4.98438C12.8177 4.98438 13.651 4.98438 14.4844 4.98438C14.493 5.31897 14.4774 5.65228 14.4375 5.98438C14.1903 6.76181 13.6642 7.06913 12.8594 6.90625C12.4186 6.74669 12.1425 6.43941 12.0312 5.98438C11.9914 5.65228 11.9757 5.31897 11.9844 4.98438ZM4.45311 7.20313C4.63489 7.35863 4.82239 7.50966 5.01561 7.65625C6.11824 8.22559 7.10783 8.07456 7.98436 7.20313C8.86089 8.07456 9.85049 8.22559 10.9531 7.65625C11.144 7.52278 11.3211 7.37175 11.4844 7.20313C12.0187 7.79075 12.6802 8.05116 13.4687 7.98438C13.4844 10.3177 13.4896 12.651 13.4844 14.9844C12.4844 14.9844 11.4844 14.9844 10.4844 14.9844C10.4896 13.8802 10.4844 12.776 10.4687 11.6719C10.3263 11.1023 9.97733 10.7221 9.42186 10.5312C8.9443 10.4958 8.46514 10.4802 7.98436 10.4844C7.50358 10.4802 7.02443 10.4958 6.54686 10.5312C5.99139 10.7221 5.64246 11.1023 5.49999 11.6719C5.48436 12.776 5.47914 13.8802 5.48436 14.9844C4.48436 14.9844 3.48436 14.9844 2.48436 14.9844C2.48436 12.6615 2.48436 10.3385 2.48436 8.01563C3.28305 8.07953 3.9393 7.80869 4.45311 7.20313ZM6.98436 11.4844C7.65111 11.4792 8.31777 11.4844 8.98436 11.5C9.27083 11.5365 9.43227 11.6979 9.46874 11.9844C9.48436 12.9843 9.48958 13.9843 9.48436 14.9844C8.48436 14.9844 7.48436 14.9844 6.48436 14.9844C6.47914 13.9843 6.48436 12.9843 6.49999 11.9844C6.54205 11.6976 6.70352 11.5309 6.98436 11.4844Z" fill="#586A84"/>
</g>
<defs>
<clipPath id="clip0_2717_4485">
<rect width="16" height="16" fill="white" transform="translate(0 0.5)"/>
</clipPath>
</defs>
</svg>
