<svg width="16" height="17" viewBox="0 0 16 17" fill="none" xmlns="http://www.w3.org/2000/svg">
<g clip-path="url(#clip0_2717_4495)">
<path opacity="0.966" fill-rule="evenodd" clip-rule="evenodd" d="M7.17188 0.484375C7.71353 0.484375 8.25522 0.484375 8.79688 0.484375C9.65975 0.770609 10.0556 1.37477 9.98438 2.29688C10.3121 2.39401 10.6298 2.51901 10.9375 2.67188C11.1223 2.48707 11.3254 2.32561 11.5469 2.1875C12.1012 1.93784 12.6325 1.97951 13.1406 2.3125C13.4792 2.65104 13.8177 2.98958 14.1562 3.32812C14.5357 3.90528 14.5461 4.48863 14.1875 5.07812C14.0569 5.22953 13.9267 5.38056 13.7969 5.53125C13.9497 5.83894 14.0747 6.15666 14.1719 6.48438C15.0928 6.41272 15.697 6.80853 15.9844 7.67188C15.9844 8.21353 15.9844 8.75522 15.9844 9.29688C15.697 10.1602 15.0928 10.556 14.1719 10.4844C14.0747 10.8121 13.9497 11.1298 13.7969 11.4375C13.9817 11.6223 14.1431 11.8254 14.2812 12.0469C14.5309 12.6012 14.4893 13.1325 14.1562 13.6406C13.8177 13.9792 13.4792 14.3177 13.1406 14.6562C12.5637 15.0378 11.9803 15.0482 11.3906 14.6875C11.2392 14.5569 11.0882 14.4267 10.9375 14.2969C10.6298 14.4497 10.3121 14.5747 9.98438 14.6719C10.056 15.5928 9.66022 16.197 8.79688 16.4844C8.25522 16.4844 7.71353 16.4844 7.17188 16.4844C6.58113 16.3259 6.20094 15.9509 6.03125 15.3594C6.01412 15.1171 5.97769 14.8827 5.92188 14.6562C5.61616 14.5581 5.31928 14.4383 5.03125 14.2969C4.88056 14.4267 4.72953 14.5569 4.57812 14.6875C3.98841 15.0482 3.40506 15.0378 2.82812 14.6562C2.48958 14.3177 2.15104 13.9792 1.8125 13.6406C1.43303 13.0635 1.42261 12.4801 1.78125 11.8906C1.91187 11.7392 2.04208 11.5882 2.17188 11.4375C2.02549 11.139 1.90049 10.8317 1.79688 10.5156C0.878456 10.5576 0.274288 10.1514 -0.015625 9.29688C-0.015625 8.75522 -0.015625 8.21353 -0.015625 7.67188C0.142801 7.08113 0.5178 6.70094 1.10938 6.53125C1.35167 6.51412 1.58605 6.47769 1.8125 6.42188C1.91068 6.11616 2.03047 5.81928 2.17188 5.53125C1.98707 5.34647 1.82561 5.14334 1.6875 4.92188C1.43784 4.3675 1.47951 3.83625 1.8125 3.32812C2.15104 2.98958 2.48958 2.65104 2.82812 2.3125C3.40528 1.93303 3.98863 1.92261 4.57812 2.28125C4.72953 2.41187 4.88056 2.54208 5.03125 2.67188C5.32975 2.52549 5.63706 2.40049 5.95312 2.29688C5.93419 1.82815 6.05397 1.40106 6.3125 1.01562C6.54944 0.754142 6.83591 0.577059 7.17188 0.484375ZM7.48438 1.42188C7.81787 1.41667 8.15122 1.42188 8.48438 1.4375C8.77366 1.456 8.94553 1.60704 9 1.89062C9.01041 2.19271 9.02084 2.49479 9.03125 2.79688C9.06578 2.94394 9.15431 3.0429 9.29688 3.09375C9.84709 3.24391 10.3679 3.46266 10.8594 3.75C11.008 3.77531 11.1539 3.76487 11.2969 3.71875C11.5281 3.46655 11.7781 3.23738 12.0469 3.03125C12.2221 2.97069 12.3887 2.99153 12.5469 3.09375C12.8229 3.36979 13.099 3.64584 13.375 3.92188C13.5274 4.16666 13.5065 4.39581 13.3125 4.60938C13.125 4.79688 12.9375 4.98438 12.75 5.17188C12.7039 5.31488 12.6934 5.46072 12.7188 5.60938C13.0251 6.14303 13.2647 6.70553 13.4375 7.29688C13.5081 7.35719 13.5862 7.40406 13.6719 7.4375C14.0174 7.44041 14.3612 7.46125 14.7031 7.5C14.9016 7.59966 15.0109 7.76113 15.0312 7.98438C15.0521 8.31772 15.0521 8.65103 15.0312 8.98438C15.0127 9.27366 14.8617 9.44553 14.5781 9.5C14.276 9.51041 13.974 9.52084 13.6719 9.53125C13.5248 9.56578 13.4258 9.65431 13.375 9.79688C13.2248 10.3471 13.0061 10.8679 12.7188 11.3594C12.6934 11.508 12.7039 11.6539 12.75 11.7969C13.0022 12.0281 13.2314 12.2781 13.4375 12.5469C13.4981 12.7221 13.4772 12.8887 13.375 13.0469C13.099 13.3229 12.8229 13.599 12.5469 13.875C12.3021 14.0274 12.0729 14.0065 11.8594 13.8125C11.6719 13.625 11.4844 13.4375 11.2969 13.25C11.1539 13.2039 11.008 13.1934 10.8594 13.2188C10.3257 13.5251 9.76322 13.7647 9.17188 13.9375C9.11156 14.0081 9.06469 14.0862 9.03125 14.1719C9.02834 14.5174 9.0075 14.8612 8.96875 15.2031C8.86909 15.4016 8.70763 15.5109 8.48438 15.5312C8.15103 15.5521 7.81772 15.5521 7.48438 15.5312C7.19509 15.5127 7.02322 15.3617 6.96875 15.0781C6.95834 14.776 6.94791 14.474 6.9375 14.1719C6.90297 14.0248 6.81444 13.9258 6.67188 13.875C6.12166 13.7248 5.60081 13.5061 5.10938 13.2188C4.96072 13.1934 4.81488 13.2039 4.67188 13.25C4.44063 13.5022 4.19063 13.7314 3.92188 13.9375C3.74669 13.9981 3.58003 13.9772 3.42188 13.875C3.14584 13.599 2.86979 13.3229 2.59375 13.0469C2.44138 12.8021 2.46222 12.5729 2.65625 12.3594C2.84375 12.1719 3.03125 11.9844 3.21875 11.7969C3.26487 11.6539 3.27531 11.508 3.25 11.3594C2.94361 10.8257 2.70403 10.2632 2.53125 9.67188C2.46068 9.61156 2.38255 9.56469 2.29688 9.53125C1.95132 9.52834 1.60757 9.5075 1.26562 9.46875C1.0672 9.36909 0.957825 9.20763 0.9375 8.98438C0.916666 8.65103 0.916666 8.31772 0.9375 7.98438C0.956 7.69509 1.10704 7.52322 1.39062 7.46875C1.69271 7.45834 1.99479 7.44791 2.29688 7.4375C2.44394 7.40297 2.5429 7.31444 2.59375 7.17188C2.74391 6.62166 2.96266 6.10081 3.25 5.60938C3.27531 5.46072 3.26487 5.31488 3.21875 5.17188C2.96655 4.94063 2.73738 4.69063 2.53125 4.42188C2.47069 4.24669 2.49153 4.08003 2.59375 3.92188C2.86979 3.64584 3.14584 3.36979 3.42188 3.09375C3.6035 2.96358 3.791 2.95316 3.98438 3.0625C4.223 3.26985 4.45219 3.4886 4.67188 3.71875C4.81488 3.76487 4.96072 3.77531 5.10938 3.75C5.64303 3.44361 6.20553 3.20403 6.79688 3.03125C6.85719 2.96068 6.90406 2.88255 6.9375 2.79688C6.94041 2.45132 6.96125 2.10757 7 1.76562C7.10644 1.56953 7.26788 1.45494 7.48438 1.42188Z" fill="#586A84"/>
<path opacity="0.962" fill-rule="evenodd" clip-rule="evenodd" d="M7.70314 4.98453C9.56889 4.97106 10.7929 5.84606 11.375 7.60953C11.6902 9.13943 11.2371 10.3842 10.0156 11.3439C8.74995 12.148 7.4583 12.1897 6.14064 11.4689C4.71067 10.4567 4.21589 9.09728 4.65626 7.39078C5.19055 5.97603 6.20617 5.17393 7.70314 4.98453ZM7.73439 5.95328C7.0208 6.06275 6.43226 6.39609 5.96876 6.95328C5.28126 7.97412 5.28126 8.99493 5.96876 10.0158C6.83773 11.0051 7.88461 11.2499 9.10939 10.7502C10.2535 10.0707 10.6858 9.07597 10.4063 7.76578C9.94567 6.53743 9.05505 5.93328 7.73439 5.95328Z" fill="#586A84"/>
</g>
<defs>
<clipPath id="clip0_2717_4495">
<rect width="16" height="16" fill="white" transform="translate(0 0.5)"/>
</clipPath>
</defs>
</svg>
