<svg width="16" height="17" viewBox="0 0 16 17" fill="none" xmlns="http://www.w3.org/2000/svg">
<g clip-path="url(#clip0_2717_4403)">
<path opacity="0.947" fill-rule="evenodd" clip-rule="evenodd" d="M2.39063 0.484375C5.68228 0.484375 8.97397 0.484375 12.2656 0.484375C12.4033 0.537845 12.5283 0.61597 12.6406 0.71875C13.1779 1.26646 13.7144 1.81334 14.25 2.35938C14.3096 2.44423 14.3513 2.53798 14.375 2.64062C14.3958 6.98438 14.3958 11.3281 14.375 15.6719C14.2495 16.0838 13.9838 16.3547 13.5781 16.4844C9.84897 16.4844 6.11978 16.4844 2.39063 16.4844C1.9849 16.3547 1.71928 16.0838 1.59375 15.6719C1.57292 10.8802 1.57292 6.08853 1.59375 1.29688C1.71928 0.884922 1.9849 0.614089 2.39063 0.484375ZM2.48438 1.04688C5.65103 1.04688 8.81772 1.04688 11.9844 1.04688C11.7757 2.484 12.3903 3.09858 13.8281 2.89062C13.8333 7.10938 13.8281 11.3281 13.8125 15.5469C13.758 15.7159 13.6487 15.8357 13.4844 15.9062C9.81772 15.9271 6.15103 15.9271 2.48438 15.9062C2.32008 15.8357 2.2107 15.7159 2.15625 15.5469C2.13542 10.8385 2.13542 6.13022 2.15625 1.42188C2.21676 1.25212 2.32614 1.12712 2.48438 1.04688ZM12.5469 1.45312C12.8331 1.73417 13.1144 2.02062 13.3906 2.3125C12.728 2.40509 12.4468 2.11863 12.5469 1.45312Z" fill="#586A84"/>
<path opacity="0.941" fill-rule="evenodd" clip-rule="evenodd" d="M6.79688 3.14072C7.1206 3.12553 7.24038 3.27137 7.15626 3.57822C6.90626 3.82822 6.65626 4.07822 6.40626 4.32822C6.39585 4.89072 6.38541 5.45322 6.37501 6.01572C6.27029 6.34957 6.04635 6.55269 5.70313 6.6251C5.08854 6.64594 4.47398 6.64594 3.85938 6.6251C3.51698 6.55357 3.29301 6.35044 3.18751 6.01572C3.16666 5.35947 3.16666 4.70322 3.18751 4.04697C3.28701 3.66616 3.53182 3.45263 3.92188 3.40635C4.49479 3.38551 5.06773 3.38551 5.64063 3.40635C5.87851 3.41851 6.0712 3.51746 6.21876 3.70322C6.4082 3.50853 6.60091 3.32103 6.79688 3.14072ZM3.95313 3.95322C3.8626 3.98629 3.79488 4.04879 3.75001 4.14072C3.71954 4.74769 3.72998 5.35188 3.78126 5.95322C3.82248 6.01532 3.87976 6.05179 3.95313 6.0626C4.53929 6.09304 5.12263 6.0826 5.70313 6.03135C5.7396 5.99488 5.77604 5.95844 5.81251 5.92197C5.83335 5.58863 5.83335 5.25532 5.81251 4.92197C5.60938 5.1251 5.40626 5.32822 5.20313 5.53135C5.08432 5.58938 4.96976 5.57897 4.85938 5.5001C4.66666 5.30738 4.47398 5.11469 4.28126 4.92197C4.18638 4.59557 4.30616 4.45494 4.64063 4.5001C4.7807 4.61407 4.9161 4.73388 5.04688 4.85947C5.29645 4.62557 5.54123 4.38597 5.78126 4.14072C5.7697 4.04575 5.71238 3.98844 5.60938 3.96885C5.05738 3.95322 4.50532 3.948 3.95313 3.95322Z" fill="#586A84"/>
<path opacity="0.942" fill-rule="evenodd" clip-rule="evenodd" d="M7.95313 3.92188C9.48441 3.91666 11.0157 3.92188 12.5469 3.9375C12.7872 4.00685 12.8549 4.15788 12.75 4.39063C12.7218 4.42816 12.6853 4.45422 12.6406 4.46875C11.0469 4.4896 9.45313 4.4896 7.85938 4.46875C7.7166 4.38935 7.66972 4.26954 7.71875 4.10938C7.7721 4.01282 7.85022 3.95032 7.95313 3.92188Z" fill="#586A84"/>
<path opacity="0.937" fill-rule="evenodd" clip-rule="evenodd" d="M7.89062 5.26563C8.83859 5.26041 9.7865 5.26563 10.7344 5.28125C10.8698 5.31754 10.9323 5.4061 10.9219 5.54688C10.9297 5.67197 10.8776 5.7605 10.7656 5.8125C9.79688 5.83335 8.82812 5.83335 7.85937 5.8125C7.64472 5.61638 7.65516 5.4341 7.89062 5.26563Z" fill="#586A84"/>
<path opacity="0.944" fill-rule="evenodd" clip-rule="evenodd" d="M3.79688 7.14063C4.45323 7.13541 5.10948 7.14063 5.76563 7.15625C6.07995 7.23097 6.28307 7.42366 6.37501 7.73438C6.39585 8.41147 6.39585 9.08854 6.37501 9.76563C6.28648 10.0625 6.09376 10.2552 5.79688 10.3438C5.13023 10.3646 4.46354 10.3646 3.79688 10.3438C3.46904 10.2659 3.26591 10.0628 3.18751 9.73438C3.16666 9.07813 3.16666 8.42188 3.18751 7.76563C3.27132 7.43707 3.47445 7.22872 3.79688 7.14063ZM3.89063 7.70313C3.82891 7.73894 3.78204 7.79104 3.75001 7.85938C3.71954 8.47675 3.72995 9.09135 3.78126 9.70313C3.80948 9.74066 3.84591 9.76672 3.89063 9.78125C4.50801 9.81172 5.1226 9.80132 5.73438 9.75C5.77191 9.72179 5.79798 9.68535 5.81251 9.64063C5.84298 9.02325 5.83257 8.40866 5.78126 7.79688C5.75304 7.75935 5.7166 7.73329 5.67188 7.71875C5.07823 7.70313 4.48448 7.69791 3.89063 7.70313Z" fill="#586A84"/>
<path opacity="0.942" fill-rule="evenodd" clip-rule="evenodd" d="M7.89062 7.67188C9.47399 7.66666 11.0573 7.67188 12.6406 7.6875C12.8004 7.7941 12.8368 7.93472 12.75 8.10938C12.7121 8.15779 12.6652 8.19422 12.6094 8.21875C11.0365 8.2396 9.46352 8.2396 7.89062 8.21875C7.69802 8.11054 7.65637 7.95947 7.76562 7.76563C7.8094 7.73372 7.85109 7.70247 7.89062 7.67188Z" fill="#586A84"/>
<path opacity="0.937" fill-rule="evenodd" clip-rule="evenodd" d="M7.85937 9.01563C8.83859 9.01041 9.81775 9.01563 10.7969 9.03125C10.9165 9.13463 10.9529 9.26482 10.9062 9.42188C10.8551 9.49407 10.7874 9.54094 10.7031 9.5625C9.78647 9.58335 8.86978 9.58335 7.95312 9.5625C7.74403 9.51444 7.66591 9.38422 7.71875 9.17188C7.75078 9.10354 7.79766 9.05144 7.85937 9.01563Z" fill="#586A84"/>
<path opacity="0.944" fill-rule="evenodd" clip-rule="evenodd" d="M3.89063 10.8594C4.49488 10.8542 5.09907 10.8594 5.70313 10.875C6.04635 10.9474 6.27029 11.1505 6.37501 11.4844C6.39585 12.151 6.39585 12.8177 6.37501 13.4844C6.26651 13.8324 6.03213 14.0356 5.67188 14.0938C5.07813 14.1146 4.48438 14.1146 3.89063 14.0938C3.51741 14.0331 3.28304 13.8195 3.18751 13.4531C3.16666 12.8073 3.16666 12.1615 3.18751 11.5156C3.28848 11.1489 3.52285 10.9301 3.89063 10.8594ZM3.95313 11.4219C3.8626 11.4549 3.79488 11.5174 3.75001 11.6094C3.71954 12.2163 3.72998 12.8205 3.78126 13.4219C3.82248 13.484 3.87976 13.5204 3.95313 13.5313C4.53851 13.5613 5.12185 13.5509 5.70313 13.5C5.7396 13.4635 5.77604 13.4271 5.81251 13.3906C5.83335 12.7865 5.83335 12.1823 5.81251 11.5781C5.76135 11.5059 5.69363 11.4591 5.60938 11.4375C5.05738 11.4219 4.50532 11.4167 3.95313 11.4219Z" fill="#586A84"/>
<path opacity="0.941" fill-rule="evenodd" clip-rule="evenodd" d="M7.95313 11.3906C9.49481 11.3854 11.0365 11.3906 12.5781 11.4063C12.7935 11.494 12.8508 11.645 12.75 11.8594C12.7218 11.8969 12.6853 11.923 12.6406 11.9375C11.0469 11.9583 9.45313 11.9583 7.85938 11.9375C7.7166 11.8581 7.66972 11.7383 7.71875 11.5781C7.76694 11.4721 7.84506 11.4096 7.95313 11.3906Z" fill="#586A84"/>
<path opacity="0.937" fill-rule="evenodd" clip-rule="evenodd" d="M7.89062 12.7344C8.83859 12.7292 9.78649 12.7344 10.7344 12.75C10.8693 12.7851 10.9318 12.8736 10.9219 13.0156C10.9297 13.1407 10.8776 13.2293 10.7656 13.2813C9.80727 13.3021 8.84896 13.3021 7.89062 13.2813C7.64193 13.1006 7.64193 12.9183 7.89062 12.7344Z" fill="#586A84"/>
</g>
<defs>
<clipPath id="clip0_2717_4403">
<rect width="16" height="16" fill="white" transform="translate(0 0.5)"/>
</clipPath>
</defs>
</svg>
