<svg width="16" height="17" viewBox="0 0 16 17" fill="none" xmlns="http://www.w3.org/2000/svg">
<g clip-path="url(#clip0_2717_4490)">
<path opacity="0.964" fill-rule="evenodd" clip-rule="evenodd" d="M15.9844 2.26568C15.9844 2.43234 15.9844 2.59901 15.9844 2.76568C15.0224 6.7803 14.0693 10.8011 13.125 14.8282C12.7973 15.4141 12.3233 15.5756 11.7031 15.3126C10.666 14.4577 9.62431 13.6087 8.57812 12.7657C7.67669 13.43 6.78088 14.1018 5.89062 14.7813C5.56269 14.9736 5.30747 14.9059 5.125 14.5782C4.74847 12.9143 4.38391 11.2476 4.03125 9.57818C2.84085 9.04811 1.64814 8.52205 0.453125 8.00005C0.217482 7.85355 0.0612316 7.65043 -0.015625 7.39068C-0.015625 7.22402 -0.015625 7.05733 -0.015625 6.89068C0.0882728 6.57311 0.296606 6.34915 0.609375 6.2188C5.28841 4.68343 9.9655 3.14176 14.6406 1.5938C15.2922 1.41956 15.7401 1.64352 15.9844 2.26568ZM14.9219 2.51568C14.9531 2.51568 14.9844 2.51568 15.0156 2.51568C14.0978 6.49958 13.1603 10.4788 12.2031 14.4532C10.5944 13.1518 8.99025 11.8445 7.39062 10.5313C8.99903 8.82911 10.6188 7.13643 12.25 5.45318C12.4895 5.17186 12.4739 4.90624 12.2031 4.6563C12.0174 4.55693 11.8299 4.55693 11.6406 4.6563C9.23438 5.99483 6.82812 7.3334 4.42188 8.67193C3.26562 8.16671 2.10938 7.66152 0.953125 7.1563C5.60981 5.60427 10.2661 4.0574 14.9219 2.51568ZM9.23438 7.10943C9.25747 7.10533 9.27831 7.11055 9.29688 7.12505C8.28125 8.18233 7.26562 9.23965 6.25 10.2969C6.04131 10.9862 5.83297 11.6737 5.625 12.3594C5.41066 11.3919 5.21275 10.4231 5.03125 9.45318C6.43675 8.67502 7.83781 7.89377 9.23438 7.10943ZM6.92188 11.4219C7.21831 11.6486 7.50997 11.8829 7.79688 12.1251C7.36378 12.4592 6.92628 12.7873 6.48438 13.1094C6.47397 13.099 6.46353 13.0886 6.45312 13.0782C6.61588 12.5275 6.77213 11.9754 6.92188 11.4219Z" fill="#586A84"/>
</g>
<defs>
<clipPath id="clip0_2717_4490">
<rect width="16" height="16" fill="white" transform="translate(0 0.5)"/>
</clipPath>
</defs>
</svg>
