<svg width="14" height="14" viewBox="0 0 14 14" fill="none" xmlns="http://www.w3.org/2000/svg">
<path opacity="0.994" fill-rule="evenodd" clip-rule="evenodd" d="M3.32227 -0.0136719C3.43164 -0.0136719 3.54102 -0.0136719 3.65039 -0.0136719C3.76827 0.045027 3.85487 0.136173 3.91016 0.259766C3.92383 0.53305 3.92837 0.806488 3.92383 1.08008C5.9655 1.08008 8.00715 1.08008 10.0488 1.08008C10.0443 0.806488 10.0488 0.53305 10.0625 0.259766C10.1178 0.136173 10.2044 0.045027 10.3223 -0.0136719C10.4316 -0.0136719 10.541 -0.0136719 10.6504 -0.0136719C10.7683 0.045027 10.8549 0.136173 10.9102 0.259766C10.9238 0.53305 10.9284 0.806488 10.9238 1.08008C11.4525 1.07552 11.9812 1.08008 12.5098 1.09375C13.3077 1.27643 13.7998 1.76406 13.9863 2.55664C13.9863 5.87434 13.9863 9.19207 13.9863 12.5098C13.7949 13.3027 13.3027 13.7949 12.5098 13.9863C8.82747 13.9863 5.14519 13.9863 1.46289 13.9863C0.669815 13.7948 0.177629 13.3026 -0.0136719 12.5098C-0.0136719 9.19207 -0.0136719 5.87434 -0.0136719 2.55664C0.172803 1.76406 0.664992 1.27643 1.46289 1.09375C1.99146 1.08008 2.5201 1.07552 3.04883 1.08008C3.04429 0.806488 3.04883 0.53305 3.0625 0.259766C3.11779 0.136173 3.20439 0.045027 3.32227 -0.0136719ZM1.79102 1.95508C2.21029 1.95508 2.62956 1.95508 3.04883 1.95508C3.04063 2.16626 3.04973 2.3759 3.07617 2.58398C3.20329 2.81137 3.3947 2.88887 3.65039 2.81641C3.77344 2.76629 3.86004 2.67969 3.91016 2.55664C3.92383 2.35633 3.92837 2.15581 3.92383 1.95508C5.9655 1.95508 8.00715 1.95508 10.0488 1.95508C10.0406 2.16626 10.0497 2.3759 10.0762 2.58398C10.2033 2.81137 10.3947 2.88887 10.6504 2.81641C10.7734 2.76629 10.86 2.67969 10.9102 2.55664C10.9238 2.35633 10.9284 2.15581 10.9238 1.95508C11.4169 1.94459 11.9091 1.95827 12.4004 1.99609C12.7513 2.0918 12.9746 2.31511 13.0703 2.66602C13.1075 3.08429 13.1211 3.50358 13.1113 3.92383C9.028 3.92383 4.94465 3.92383 0.861328 3.92383C0.856773 3.57736 0.861331 3.23099 0.875 2.88477C0.92998 2.32395 1.23532 2.01405 1.79102 1.95508ZM0.861328 4.79883C4.94465 4.79883 9.028 4.79883 13.1113 4.79883C13.1159 7.25979 13.1113 9.72073 13.0977 12.1816C13.0475 12.7422 12.7422 13.0475 12.1816 13.0977C8.71809 13.1159 5.25457 13.1159 1.79102 13.0977C1.23047 13.0475 0.925129 12.7422 0.875 12.1816C0.861328 9.72073 0.85677 7.25979 0.861328 4.79883Z" fill="#EEF0F4"/>
</svg>
