<svg width="12" height="13" viewBox="0 0 12 13" fill="none" xmlns="http://www.w3.org/2000/svg">
<g clip-path="url(#clip0_1962_13699)">
<path opacity="0.989" fill-rule="evenodd" clip-rule="evenodd" d="M3.55078 0.488281C5.17577 0.488281 6.80079 0.488281 8.42578 0.488281C9.21202 0.669031 9.70029 1.15341 9.89062 1.94141C9.90234 2.46478 9.90626 2.98822 9.90234 3.51172C10.9994 3.43027 11.6947 3.91466 11.9883 4.96484C11.9883 6.09765 11.9883 7.23048 11.9883 8.36328C11.7051 9.42659 11.0098 9.91878 9.90234 9.83984C9.91324 10.4817 9.90152 11.1223 9.86719 11.7617C9.72778 12.1395 9.46605 12.3817 9.08203 12.4883C7.01953 12.4883 4.95703 12.4883 2.89453 12.4883C2.5103 12.3815 2.24858 12.1393 2.10938 11.7617C2.07503 11.1223 2.06331 10.4817 2.07422 9.83984C0.977243 9.92143 0.281932 9.43705 -0.0117188 8.38672C-0.0117188 7.24609 -0.0117188 6.10548 -0.0117188 4.96484C0.281932 3.91452 0.977243 3.43013 2.07422 3.51172C2.07031 2.98822 2.07422 2.46478 2.08594 1.94141C2.20648 1.32155 2.55413 0.880142 3.12891 0.617188C3.26998 0.566436 3.4106 0.523467 3.55078 0.488281ZM3.83203 1.19141C5.26955 1.1875 6.70706 1.19141 8.14453 1.20312C8.77343 1.26953 9.1211 1.61719 9.1875 2.24609C9.19922 2.6679 9.20313 3.08977 9.19922 3.51172C7.0586 3.51172 4.91796 3.51172 2.77734 3.51172C2.77343 3.08977 2.77734 2.6679 2.78906 2.24609C2.85963 1.61694 3.20728 1.26538 3.83203 1.19141ZM1.74609 4.21484C4.57423 4.21093 7.40236 4.21484 10.2305 4.22656C10.767 4.26315 11.1069 4.54048 11.25 5.05859C11.2762 5.59707 11.2879 6.13613 11.2852 6.67578C11.2879 7.21543 11.2762 7.75449 11.25 8.29297C11.1367 8.71876 10.8672 8.98829 10.4414 9.10156C10.2626 9.12662 10.0829 9.13834 9.90234 9.13672C9.90234 8.74609 9.90234 8.35548 9.90234 7.96484C10.0198 7.96873 10.137 7.96482 10.2539 7.95312C10.4511 7.85122 10.5175 7.69107 10.4531 7.47266C10.418 7.37499 10.3516 7.30859 10.2539 7.27344C7.41016 7.2578 4.5664 7.2578 1.72266 7.27344C1.51231 7.39419 1.45372 7.56997 1.54688 7.80078C1.58824 7.87046 1.64683 7.92125 1.72266 7.95312C1.83958 7.96482 1.95677 7.96873 2.07422 7.96484C2.07422 8.35548 2.07422 8.74609 2.07422 9.13672C1.5734 9.20309 1.17105 9.03903 0.867188 8.64453C0.761543 8.47196 0.706856 8.28446 0.703125 8.08203C0.687499 7.14453 0.687499 6.20703 0.703125 5.26953C0.773693 4.64038 1.12135 4.28881 1.74609 4.21484ZM2.77734 7.96484C4.91796 7.96484 7.0586 7.96484 9.19922 7.96484C9.20313 9.12111 9.19922 10.2774 9.1875 11.4336C9.16798 11.6406 9.05468 11.7539 8.84766 11.7734C6.94141 11.7891 5.03515 11.7891 3.12891 11.7734C2.92188 11.7539 2.80859 11.6406 2.78906 11.4336C2.77734 10.2774 2.77343 9.12111 2.77734 7.96484Z" fill="#319DFF"/>
<path opacity="0.976" fill-rule="evenodd" clip-rule="evenodd" d="M1.72267 5.01172C2.19149 5.00781 2.66024 5.01172 3.12892 5.02344C3.32615 5.12535 3.39254 5.2855 3.32814 5.50391C3.29298 5.60157 3.22658 5.66797 3.12892 5.70313C2.66017 5.71876 2.19142 5.71876 1.72267 5.70313C1.51233 5.58238 1.45373 5.4066 1.54689 5.17578C1.59411 5.10753 1.6527 5.05285 1.72267 5.01172Z" fill="#319DFF"/>
<path opacity="0.983" fill-rule="evenodd" clip-rule="evenodd" d="M4.91014 8.76172C5.62892 8.75781 6.34768 8.76172 7.06639 8.77344C7.26362 8.87535 7.33002 9.0355 7.26561 9.25391C7.23046 9.35157 7.16406 9.41797 7.06639 9.45313C6.34764 9.46876 5.6289 9.46876 4.91014 9.45313C4.69979 9.33238 4.6412 9.1566 4.73436 8.92578C4.78159 8.85753 4.84018 8.80285 4.91014 8.76172Z" fill="#319DFF"/>
<path opacity="0.983" fill-rule="evenodd" clip-rule="evenodd" d="M4.91014 10.2617C5.62892 10.2578 6.34768 10.2617 7.06639 10.2734C7.26362 10.3753 7.33002 10.5355 7.26561 10.7539C7.23046 10.8516 7.16406 10.918 7.06639 10.9531C6.34764 10.9688 5.6289 10.9688 4.91014 10.9531C4.69979 10.8324 4.6412 10.6566 4.73436 10.4258C4.78159 10.3575 4.84018 10.3029 4.91014 10.2617Z" fill="#319DFF"/>
</g>
<defs>
<clipPath id="clip0_1962_13699">
<rect width="12" height="12" fill="white" transform="translate(0 0.5)"/>
</clipPath>
</defs>
</svg>
