<svg width="12" height="13" viewBox="0 0 12 13" fill="none" xmlns="http://www.w3.org/2000/svg">
<g clip-path="url(#clip0_1962_13689)">
<path opacity="0.988" fill-rule="evenodd" clip-rule="evenodd" d="M3.05859 0.863282C4.4258 0.859375 5.793 0.863282 7.16016 0.875C7.51116 0.934518 7.82365 1.07514 8.09766 1.29688C8.74999 1.94922 9.40235 2.60156 10.0547 3.25391C10.2713 3.53103 10.4119 3.84352 10.4766 4.19141C10.4922 6.30859 10.4922 8.42579 10.4766 10.543C10.3511 11.2231 9.97223 11.7036 9.33984 11.9844C9.20316 12.0377 9.06253 12.0768 8.91797 12.1016C6.96485 12.1172 5.01171 12.1172 3.05859 12.1016C2.37846 11.9761 1.89799 11.5972 1.61719 10.9648C1.56382 10.8282 1.52475 10.6875 1.5 10.543C1.48437 7.83985 1.48437 5.13671 1.5 2.43359C1.68942 1.57971 2.20895 1.05627 3.05859 0.863282ZM3.36328 1.61328C4.59825 1.6024 5.83263 1.61412 7.06641 1.64844C7.10904 2.20953 7.12856 2.77594 7.125 3.34766C7.2461 3.81249 7.53907 4.10546 8.00391 4.22656C8.56657 4.23048 9.12907 4.2422 9.69141 4.26172C9.70908 4.33852 9.7208 4.41664 9.72656 4.49609C9.7422 6.41016 9.7422 8.32421 9.72656 10.2383C9.6847 10.8036 9.39174 11.1669 8.84766 11.3281C8.76954 11.3359 8.6914 11.3438 8.61328 11.3516C6.86327 11.3672 5.11329 11.3672 3.36328 11.3516C2.82902 11.3169 2.47355 11.0474 2.29688 10.543C2.27272 10.4428 2.2571 10.3413 2.25 10.2383C2.23437 7.73827 2.23437 5.23829 2.25 2.73828C2.28462 2.20403 2.55415 1.84856 3.05859 1.67188C3.16324 1.65139 3.2648 1.63186 3.36328 1.61328ZM7.86328 2.17578C8.30388 2.60465 8.74137 3.03823 9.17578 3.47656C8.86329 3.4922 8.55077 3.4922 8.23828 3.47656C8.02343 3.44921 7.90235 3.32813 7.875 3.11328C7.86328 2.80088 7.85937 2.48838 7.86328 2.17578Z" fill="#319DFF"/>
<path opacity="0.988" fill-rule="evenodd" clip-rule="evenodd" d="M5.84766 4.98845C6.07875 4.93806 6.24673 5.01618 6.35157 5.22283C6.36329 5.64463 6.3672 6.06651 6.36329 6.48845C6.78523 6.48454 7.20711 6.48845 7.62891 6.50017C7.79267 6.56596 7.87079 6.68704 7.86329 6.86345C7.87079 7.03987 7.79267 7.16094 7.62891 7.22673C7.20711 7.23845 6.78523 7.24237 6.36329 7.23845C6.3672 7.6604 6.36329 8.08227 6.35157 8.50408C6.28578 8.66783 6.1647 8.74595 5.98829 8.73845C5.81187 8.74595 5.69079 8.66783 5.625 8.50408C5.61329 8.08227 5.60937 7.6604 5.61329 7.23845C5.19134 7.24237 4.76947 7.23845 4.34766 7.22673C4.1839 7.16094 4.10579 7.03987 4.11329 6.86345C4.10579 6.68704 4.1839 6.56596 4.34766 6.50017C4.76947 6.48845 5.19134 6.48454 5.61329 6.48845C5.60937 6.06651 5.61329 5.64463 5.625 5.22283C5.6724 5.11689 5.74662 5.03877 5.84766 4.98845Z" fill="#319DFF"/>
</g>
<defs>
<clipPath id="clip0_1962_13689">
<rect width="12" height="12" fill="white" transform="translate(0 0.5)"/>
</clipPath>
</defs>
</svg>
