<svg width="12" height="13" viewBox="0 0 12 13" fill="none" xmlns="http://www.w3.org/2000/svg">
<mask id="mask0_1914_14661" style="mask-type:alpha" maskUnits="userSpaceOnUse" x="0" y="0" width="12" height="13">
<rect y="0.5" width="12" height="12" fill="#D9D9D9"/>
</mask>
<g mask="url(#mask0_1914_14661)">
<path d="M3.0625 12.5C2.68438 12.5 2.36079 12.3696 2.09175 12.1087C1.82225 11.8473 1.6875 11.5333 1.6875 11.1667V2.5C1.49271 2.5 1.32931 2.43622 1.19731 2.30867C1.06577 2.18067 1 2.02222 1 1.83333C1 1.64444 1.06577 1.486 1.19731 1.358C1.32931 1.23044 1.49271 1.16667 1.6875 1.16667H4.4375C4.4375 0.977778 4.5035 0.819333 4.6355 0.691333C4.76704 0.563778 4.93021 0.5 5.125 0.5H7.875C8.06979 0.5 8.23319 0.563778 8.36519 0.691333C8.49673 0.819333 8.5625 0.977778 8.5625 1.16667H11.3125C11.5073 1.16667 11.6705 1.23044 11.802 1.358C11.934 1.486 12 1.64444 12 1.83333C12 2.02222 11.934 2.18067 11.802 2.30867C11.6705 2.43622 11.5073 2.5 11.3125 2.5V11.1667C11.3125 11.5333 11.178 11.8473 10.9089 12.1087C10.6394 12.3696 10.3156 12.5 9.9375 12.5H3.0625ZM4.4375 9.16667C4.4375 9.35556 4.5035 9.51378 4.6355 9.64133C4.76704 9.76933 4.93021 9.83333 5.125 9.83333C5.31979 9.83333 5.48319 9.76933 5.61519 9.64133C5.74673 9.51378 5.8125 9.35556 5.8125 9.16667V4.5C5.8125 4.31111 5.74673 4.15267 5.61519 4.02467C5.48319 3.89711 5.31979 3.83333 5.125 3.83333C4.93021 3.83333 4.76704 3.89711 4.6355 4.02467C4.5035 4.15267 4.4375 4.31111 4.4375 4.5V9.16667ZM7.1875 9.16667C7.1875 9.35556 7.2535 9.51378 7.3855 9.64133C7.51704 9.76933 7.68021 9.83333 7.875 9.83333C8.06979 9.83333 8.23319 9.76933 8.36519 9.64133C8.49673 9.51378 8.5625 9.35556 8.5625 9.16667V4.5C8.5625 4.31111 8.49673 4.15267 8.36519 4.02467C8.23319 3.89711 8.06979 3.83333 7.875 3.83333C7.68021 3.83333 7.51704 3.89711 7.3855 4.02467C7.2535 4.15267 7.1875 4.31111 7.1875 4.5V9.16667Z" fill="#FF316A"/>
</g>
</svg>
