<svg width="12" height="13" viewBox="0 0 12 13" fill="none" xmlns="http://www.w3.org/2000/svg">
<path opacity="0.977" fill-rule="evenodd" clip-rule="evenodd" d="M2.94141 0.488281C4.97266 0.488281 7.0039 0.488281 9.03516 0.488281C9.2007 0.547996 9.33743 0.649558 9.44531 0.792969C10.0375 1.81334 10.6234 2.83678 11.2031 3.86328C11.2188 6.52735 11.2188 9.1914 11.2031 11.8555C11.1168 12.1878 10.9098 12.3988 10.582 12.4883C7.51952 12.4883 4.45704 12.4883 1.39453 12.4883C1.06677 12.3988 0.859735 12.1878 0.773438 11.8555C0.757812 9.20703 0.757812 6.55859 0.773438 3.91016C0.791569 3.82698 0.822821 3.74886 0.867188 3.67578C1.4278 2.71867 1.98248 1.75774 2.53125 0.792969C2.63913 0.649558 2.77587 0.547996 2.94141 0.488281ZM3.15234 1.19141C3.98046 1.19141 4.8086 1.19141 5.63672 1.19141C5.63672 1.94141 5.63672 2.69141 5.63672 3.44141C4.37881 3.44921 3.12101 3.44141 1.86328 3.41797C2.28732 2.6713 2.71702 1.92912 3.15234 1.19141ZM6.36328 1.19141C7.18364 1.1875 8.00395 1.19141 8.82422 1.20312C9.26278 1.93564 9.69246 2.67392 10.1133 3.41797C8.86338 3.44141 7.61337 3.44921 6.36328 3.44141C6.36328 2.69141 6.36328 1.94141 6.36328 1.19141ZM1.48828 4.16797C4.48828 4.16797 7.48828 4.16797 10.4883 4.16797C10.4922 6.68361 10.4883 9.19923 10.4766 11.7148C10.4491 11.7475 10.414 11.767 10.3711 11.7734C7.44921 11.7891 4.52735 11.7891 1.60547 11.7734C1.5626 11.767 1.52745 11.7475 1.5 11.7148C1.48828 9.19923 1.48437 6.68361 1.48828 4.16797Z" fill="#319DFF"/>
</svg>
