<svg width="12" height="13" viewBox="0 0 12 13" fill="none" xmlns="http://www.w3.org/2000/svg">
<g clip-path="url(#clip0_2122_15633)">
<path opacity="0.964" fill-rule="evenodd" clip-rule="evenodd" d="M2.26172 0.488281C4.12891 0.488281 5.99609 0.488281 7.86328 0.488281C8.74531 1.35077 9.61638 2.22577 10.4766 3.11328C10.4922 5.98046 10.4922 8.84766 10.4766 11.7148C10.359 12.1097 10.1051 12.3676 9.71484 12.4883C7.23047 12.4883 4.74609 12.4883 2.26172 12.4883C1.87148 12.3676 1.61757 12.1097 1.5 11.7148C1.48437 8.23046 1.48437 4.7461 1.5 1.26172C1.61757 0.86682 1.87148 0.609008 2.26172 0.488281ZM2.37891 1.00391C4.08204 1.00391 5.78515 1.00391 7.48828 1.00391C7.48437 1.57427 7.48828 2.14458 7.5 2.71484C7.61327 3.10937 7.8672 3.36329 8.26172 3.47656C8.83198 3.48828 9.40228 3.4922 9.97266 3.48828C9.97657 6.19142 9.97266 8.89454 9.96094 11.5977C9.90234 11.7812 9.78124 11.9023 9.59766 11.9609C7.1914 11.9766 4.78516 11.9766 2.37891 11.9609C2.19531 11.9023 2.07422 11.7812 2.01563 11.5977C2 8.19141 2 4.78515 2.01563 1.37891C2.07856 1.19492 2.19965 1.06992 2.37891 1.00391ZM8.00391 1.40234C8.53043 1.91715 9.05388 2.43668 9.57422 2.96094C9.17578 2.97657 8.77734 2.97657 8.37891 2.96094C8.19532 2.90234 8.07422 2.78125 8.01563 2.59766C8.00391 2.1993 7.99999 1.80086 8.00391 1.40234Z" fill="#319DFF"/>
<path opacity="0.949" fill-rule="evenodd" clip-rule="evenodd" d="M3.66798 2.22265C3.85986 2.20871 3.96925 2.29465 3.99611 2.48046C4.14287 2.46574 4.2835 2.48528 4.41798 2.53906C4.49685 2.65201 4.50857 2.77311 4.45314 2.90234C4.41613 2.93846 4.37315 2.96581 4.32423 2.98437C4.11329 2.99217 3.90236 3 3.69142 3.00781C3.53833 3.06005 3.47973 3.16552 3.51564 3.32421C3.53404 3.36607 3.56136 3.40123 3.59767 3.42968C3.70258 3.47213 3.81196 3.49556 3.92579 3.49999C4.36965 3.64894 4.55326 3.95754 4.47658 4.42578C4.40645 4.68431 4.2463 4.85618 3.99611 4.9414C3.98017 5.20339 3.84735 5.29322 3.59767 5.21093C3.51817 5.15738 3.4791 5.08315 3.48048 4.98828C3.34478 4.99774 3.21198 4.98603 3.08204 4.95312C2.99286 4.85724 2.96551 4.74396 3.00001 4.61328C3.04597 4.55152 3.10457 4.50853 3.17579 4.48437C3.38673 4.47656 3.59767 4.46874 3.80861 4.46093C3.98493 4.36449 4.01619 4.23167 3.90236 4.06249C3.73056 4.01939 3.55869 3.97252 3.38673 3.92187C2.9586 3.62611 2.86874 3.2472 3.1172 2.78515C3.20734 2.66791 3.32061 2.58197 3.45704 2.52734C3.46457 2.37965 3.53488 2.27809 3.66798 2.22265Z" fill="#319DFF"/>
<path opacity="0.961" fill-rule="evenodd" clip-rule="evenodd" d="M5.66014 4.47266C6.70705 4.46875 7.75393 4.47266 8.80077 4.48438C8.98968 4.56512 9.04044 4.70185 8.95311 4.89453C8.92466 4.93084 8.8895 4.95817 8.84764 4.97657C7.76952 4.9922 6.69139 4.9922 5.61327 4.97657C5.41525 4.7863 5.43088 4.61832 5.66014 4.47266Z" fill="#319DFF"/>
<path opacity="0.966" fill-rule="evenodd" clip-rule="evenodd" d="M3.17579 5.97266C5.05081 5.96875 6.92581 5.97266 8.80079 5.98438C8.98969 6.06512 9.04046 6.20185 8.95313 6.39453C8.92468 6.43084 8.88952 6.45817 8.84766 6.47657C6.94142 6.4922 5.03515 6.4922 3.12891 6.47657C3.02454 6.42803 2.97767 6.346 2.98829 6.23047C2.99661 6.10499 3.05912 6.01904 3.17579 5.97266Z" fill="#319DFF"/>
<path opacity="0.966" fill-rule="evenodd" clip-rule="evenodd" d="M3.17579 7.47266C5.05081 7.46875 6.92581 7.47266 8.80079 7.48438C8.98969 7.56512 9.04046 7.70185 8.95313 7.89453C8.92468 7.93084 8.88952 7.95817 8.84766 7.97657C6.94142 7.9922 5.03515 7.9922 3.12891 7.97657C3.02454 7.92803 2.97767 7.846 2.98829 7.73047C2.99661 7.60499 3.05912 7.51904 3.17579 7.47266Z" fill="#319DFF"/>
<path opacity="0.966" fill-rule="evenodd" clip-rule="evenodd" d="M3.17579 8.97266C5.05081 8.96875 6.92581 8.97266 8.80079 8.98438C8.98969 9.06512 9.04046 9.20185 8.95313 9.39453C8.92468 9.43084 8.88952 9.45817 8.84766 9.47657C6.94142 9.4922 5.03515 9.4922 3.12891 9.47657C3.02454 9.42803 2.97767 9.346 2.98829 9.23047C2.99661 9.10499 3.05912 9.01904 3.17579 8.97266Z" fill="#319DFF"/>
<path opacity="0.961" fill-rule="evenodd" clip-rule="evenodd" d="M3.17579 10.4727C4.22269 10.4687 5.26958 10.4727 6.31641 10.4844C6.54694 10.6258 6.56258 10.7899 6.36329 10.9766C5.28516 10.9922 4.20704 10.9922 3.12891 10.9766C3.02454 10.928 2.97767 10.846 2.98829 10.7305C2.99661 10.605 3.05912 10.519 3.17579 10.4727Z" fill="#319DFF"/>
</g>
<defs>
<clipPath id="clip0_2122_15633">
<rect width="12" height="12" fill="white" transform="translate(0 0.5)"/>
</clipPath>
</defs>
</svg>
