<svg width="12" height="13" viewBox="0 0 12 13" fill="none" xmlns="http://www.w3.org/2000/svg">
<g clip-path="url(#clip0_1962_13677)">
<path opacity="0.984" fill-rule="evenodd" clip-rule="evenodd" d="M2.98828 0.863282C4.73829 0.859375 6.4883 0.863282 8.23828 0.875C8.50838 0.925827 8.75056 1.0352 8.96484 1.20313C9.7422 1.93359 10.5195 2.66406 11.2969 3.39453C11.4526 3.59567 11.5541 3.82224 11.6016 4.07422C11.6172 5.87891 11.6172 7.68359 11.6016 9.48828C11.4218 10.6367 10.8007 11.4453 9.73828 11.9141C9.49559 12.006 9.24558 12.0685 8.98828 12.1016C6.98829 12.1172 4.98827 12.1172 2.98828 12.1016C1.83984 11.9218 1.03125 11.3007 0.562501 10.2383C0.470576 9.99559 0.408078 9.74558 0.375001 9.48828C0.359375 7.48829 0.359375 5.48827 0.375001 3.48828C0.583184 2.21757 1.29803 1.37773 2.51953 0.96875C2.67795 0.928553 2.83418 0.893396 2.98828 0.863282ZM3.33984 1.61328C4.84765 1.61328 6.35548 1.61328 7.86328 1.61328C7.85937 2.0821 7.86328 2.55085 7.875 3.01953C8.02945 3.68181 8.43961 4.08416 9.10547 4.22656C9.68353 4.23828 10.2617 4.2422 10.8398 4.23828C10.8551 5.06989 10.8629 5.90192 10.8633 6.73438C10.8662 7.62931 10.8545 8.52383 10.8281 9.41797C10.6504 10.3692 10.0996 10.9902 9.17578 11.2812C8.99864 11.3237 8.81897 11.3472 8.63672 11.3516C6.8711 11.3672 5.10546 11.3672 3.33984 11.3516C2.37687 11.2944 1.69327 10.8296 1.28906 9.95703C1.22307 9.7903 1.17619 9.61843 1.14844 9.44141C1.12207 8.45741 1.11035 7.47303 1.11328 6.48828C1.11035 5.50353 1.12207 4.51916 1.14844 3.53516C1.33675 2.59682 1.88753 1.98354 2.80078 1.69531C2.98223 1.65667 3.16193 1.62933 3.33984 1.61328ZM8.61328 1.96484C9.17025 2.4553 9.71712 2.9592 10.2539 3.47656C9.95702 3.4922 9.66016 3.4922 9.36328 3.47656C8.9872 3.45477 8.74891 3.26335 8.64844 2.90234C8.61663 2.59081 8.60491 2.27831 8.61328 1.96484Z" fill="#319DFF"/>
<path opacity="0.989" fill-rule="evenodd" clip-rule="evenodd" d="M5.84766 4.42595C6.07875 4.37556 6.24673 4.45368 6.35157 4.66033C6.36329 5.14464 6.3672 5.62902 6.36329 6.11345C6.84772 6.10954 7.3321 6.11345 7.81641 6.12517C7.98017 6.19096 8.05829 6.31204 8.05079 6.48845C8.05829 6.66487 7.98017 6.78594 7.81641 6.85173C7.3321 6.86345 6.84772 6.86737 6.36329 6.86345C6.3672 7.34788 6.36329 7.83226 6.35157 8.31658C6.28578 8.48034 6.1647 8.55845 5.98829 8.55095C5.81187 8.55845 5.69079 8.48034 5.625 8.31658C5.61329 7.83226 5.60937 7.34788 5.61329 6.86345C5.12886 6.86737 4.64447 6.86345 4.16016 6.85173C3.9964 6.78594 3.91829 6.66487 3.92579 6.48845C3.91829 6.31204 3.9964 6.19096 4.16016 6.12517C4.64447 6.11345 5.12886 6.10954 5.61329 6.11345C5.60937 5.62902 5.61329 5.14464 5.625 4.66033C5.6724 4.55439 5.74662 4.47627 5.84766 4.42595Z" fill="#319DFF"/>
</g>
<defs>
<clipPath id="clip0_1962_13677">
<rect width="12" height="12" fill="white" transform="translate(0 0.5)"/>
</clipPath>
</defs>
</svg>
