<svg width="14" height="20" viewBox="0 0 14 20" fill="none" xmlns="http://www.w3.org/2000/svg">
<mask id="mask0_555_8628" style="mask-type:alpha" maskUnits="userSpaceOnUse" x="0" y="0" width="12" height="12">
<rect width="12" height="12" fill="#D9D9D9"/>
</mask>
<g mask="url(#mask0_555_8628)">
<path d="M3.35002 7.3499C3.25836 7.25824 3.21252 7.14157 3.21252 6.9999C3.21252 6.85824 3.25836 6.74157 3.35002 6.6499L5.65002 4.3499C5.70002 4.2999 5.75419 4.2644 5.81252 4.2434C5.87086 4.22274 5.93336 4.2124 6.00002 4.2124C6.06669 4.2124 6.13136 4.2249 6.19402 4.2499C6.25636 4.2749 6.30836 4.30824 6.35002 4.3499L8.65002 6.6499C8.74169 6.74157 8.78752 6.85824 8.78752 6.9999C8.78752 7.14157 8.74169 7.25824 8.65002 7.3499C8.55836 7.44157 8.44169 7.4874 8.30002 7.4874C8.15836 7.4874 8.04169 7.44157 7.95002 7.3499L6.00002 5.3999L4.05002 7.3499C3.95836 7.44157 3.84169 7.4874 3.70002 7.4874C3.55836 7.4874 3.44169 7.44157 3.35002 7.3499Z" fill="#7D8FA9"/>
</g>
<mask id="mask1_555_8628" style="mask-type:alpha" maskUnits="userSpaceOnUse" x="0" y="8" width="12" height="12">
<rect y="8" width="12" height="12" fill="#D9D9D9"/>
</mask>
<g mask="url(#mask1_555_8628)">
<path d="M6.00002 15.4874C5.93336 15.4874 5.86886 15.4749 5.80652 15.4499C5.74386 15.4249 5.69169 15.3916 5.65002 15.3499L3.35002 13.0499C3.25836 12.9582 3.21252 12.8416 3.21252 12.6999C3.21252 12.5582 3.25836 12.4416 3.35002 12.3499C3.44169 12.2582 3.55836 12.2124 3.70002 12.2124C3.84169 12.2124 3.95836 12.2582 4.05002 12.3499L6.00002 14.2999L7.95002 12.3499C8.04169 12.2582 8.15836 12.2124 8.30002 12.2124C8.44169 12.2124 8.55836 12.2582 8.65002 12.3499C8.74169 12.4416 8.78752 12.5582 8.78752 12.6999C8.78752 12.8416 8.74169 12.9582 8.65002 13.0499L6.35002 15.3499C6.30002 15.3999 6.24586 15.4352 6.18752 15.4559C6.12919 15.4769 6.06669 15.4874 6.00002 15.4874Z" fill="#7D8FA9"/>
</g>
</svg>
