<svg width="20" height="20" viewBox="0 0 20 20" fill="none" xmlns="http://www.w3.org/2000/svg">
<mask id="mask0_2717_1863" style="mask-type:alpha" maskUnits="userSpaceOnUse" x="0" y="0" width="20" height="20">
<rect x="0.399902" y="0.399902" width="19.2" height="19.2" fill="#D9D9D9"/>
</mask>
<g mask="url(#mask0_2717_1863)">
<path d="M9.99993 17.2C7.98659 17.2 6.28313 16.5032 4.88953 15.1096C3.49646 13.7166 2.79993 12.0134 2.79993 10C2.79993 8.16002 3.39993 6.56322 4.59993 5.20962C5.79993 3.85655 7.33326 3.06669 9.19993 2.84002C9.53326 2.80002 9.79326 2.92002 9.97993 3.20002C10.1666 3.48002 10.1599 3.77335 9.95993 4.08002C9.73326 4.42669 9.56313 4.79335 9.44953 5.18002C9.33646 5.56669 9.27993 5.97335 9.27993 6.40002C9.27993 7.60002 9.69993 8.62002 10.5399 9.46002C11.3799 10.3 12.3999 10.72 13.5999 10.72C14.0133 10.72 14.4234 10.66 14.8303 10.54C15.2367 10.42 15.5999 10.2534 15.9199 10.04C16.1999 9.85335 16.4866 9.84322 16.7799 10.0096C17.0733 10.1766 17.1999 10.44 17.1599 10.8C16.9733 12.64 16.1901 14.1667 14.8103 15.38C13.4301 16.5934 11.8266 17.2 9.99993 17.2Z" fill="#EEF0F4"/>
</g>
</svg>
