<svg width="20" height="20" viewBox="0 0 20 20" fill="none" xmlns="http://www.w3.org/2000/svg">
<mask id="mask0_2717_1866" style="mask-type:alpha" maskUnits="userSpaceOnUse" x="0" y="0" width="20" height="20">
<rect width="20" height="20" fill="#D9D9D9"/>
</mask>
<g mask="url(#mask0_2717_1866)">
<path d="M9.99998 3.3335C9.76387 3.3335 9.56609 3.2535 9.40665 3.0935C9.24665 2.93405 9.16665 2.73627 9.16665 2.50016V1.66683C9.16665 1.43072 9.24665 1.23266 9.40665 1.07266C9.56609 0.913218 9.76387 0.833496 9.99998 0.833496C10.2361 0.833496 10.4341 0.913218 10.5941 1.07266C10.7536 1.23266 10.8333 1.43072 10.8333 1.66683V2.50016C10.8333 2.73627 10.7536 2.93405 10.5941 3.0935C10.4341 3.2535 10.2361 3.3335 9.99998 3.3335ZM9.99998 19.1668C9.76387 19.1668 9.56609 19.0868 9.40665 18.9268C9.24665 18.7674 9.16665 18.5696 9.16665 18.3335V17.5002C9.16665 17.2641 9.24665 17.0663 9.40665 16.9068C9.56609 16.7468 9.76387 16.6668 9.99998 16.6668C10.2361 16.6668 10.4341 16.7468 10.5941 16.9068C10.7536 17.0663 10.8333 17.2641 10.8333 17.5002V18.3335C10.8333 18.5696 10.7536 18.7674 10.5941 18.9268C10.4341 19.0868 10.2361 19.1668 9.99998 19.1668ZM17.5 10.8335C17.2639 10.8335 17.0661 10.7535 16.9066 10.5935C16.7466 10.4341 16.6666 10.2363 16.6666 10.0002C16.6666 9.76405 16.7466 9.566 16.9066 9.406C17.0661 9.24655 17.2639 9.16683 17.5 9.16683H18.3333C18.5694 9.16683 18.7672 9.24655 18.9266 9.406C19.0866 9.566 19.1666 9.76405 19.1666 10.0002C19.1666 10.2363 19.0866 10.4341 18.9266 10.5935C18.7672 10.7535 18.5694 10.8335 18.3333 10.8335H17.5ZM1.66665 10.8335C1.43054 10.8335 1.23276 10.7535 1.07331 10.5935C0.913313 10.4341 0.833313 10.2363 0.833313 10.0002C0.833313 9.76405 0.913313 9.566 1.07331 9.406C1.23276 9.24655 1.43054 9.16683 1.66665 9.16683H2.49998C2.73609 9.16683 2.93415 9.24655 3.09415 9.406C3.25359 9.566 3.33331 9.76405 3.33331 10.0002C3.33331 10.2363 3.25359 10.4341 3.09415 10.5935C2.93415 10.7535 2.73609 10.8335 2.49998 10.8335H1.66665ZM15 5.00016C14.8472 4.84739 14.7708 4.65627 14.7708 4.42683C14.7708 4.19794 14.8472 4.00016 15 3.8335L15.2916 3.521C15.4444 3.35433 15.6389 3.271 15.875 3.271C16.1111 3.271 16.3125 3.35433 16.4791 3.521C16.6458 3.68766 16.7291 3.88905 16.7291 4.12516C16.7291 4.36127 16.6458 4.56266 16.4791 4.72933L16.1666 5.021C16 5.17377 15.8055 5.25016 15.5833 5.25016C15.3611 5.25016 15.1666 5.16683 15 5.00016ZM3.52081 16.4793C3.35415 16.3127 3.27081 16.1113 3.27081 15.8752C3.27081 15.6391 3.35415 15.4377 3.52081 15.271L3.83331 14.9793C3.99998 14.8266 4.19442 14.7502 4.41665 14.7502C4.63887 14.7502 4.83331 14.8335 4.99998 15.0002C5.15276 15.1529 5.23276 15.3474 5.23998 15.5835C5.24665 15.8196 5.16665 16.0141 4.99998 16.1668L4.70831 16.4793C4.55554 16.646 4.36109 16.7293 4.12498 16.7293C3.88887 16.7293 3.68748 16.646 3.52081 16.4793ZM15.2708 16.4793L14.9791 16.1668C14.8264 16.0002 14.75 15.8057 14.75 15.5835C14.75 15.3613 14.8333 15.1668 15 15.0002C15.1528 14.8474 15.3472 14.7674 15.5833 14.7602C15.8194 14.7535 16.0139 14.8335 16.1666 15.0002L16.4791 15.2918C16.6458 15.4446 16.7291 15.6391 16.7291 15.8752C16.7291 16.1113 16.6458 16.3127 16.4791 16.4793C16.3125 16.646 16.1111 16.7293 15.875 16.7293C15.6389 16.7293 15.4375 16.646 15.2708 16.4793ZM3.83331 5.00016L3.52081 4.7085C3.35415 4.55572 3.27081 4.36127 3.27081 4.12516C3.27081 3.88905 3.35415 3.68766 3.52081 3.521C3.68748 3.35433 3.88887 3.271 4.12498 3.271C4.36109 3.271 4.56248 3.35433 4.72915 3.521L5.02081 3.8335C5.17359 4.00016 5.24998 4.19461 5.24998 4.41683C5.24998 4.63905 5.16665 4.8335 4.99998 5.00016C4.8472 5.15294 4.65609 5.22933 4.42665 5.22933C4.19776 5.22933 3.99998 5.15294 3.83331 5.00016ZM9.99998 15.0002C8.61109 15.0002 7.43054 14.5141 6.45831 13.5418C5.48609 12.5696 4.99998 11.3891 4.99998 10.0002C4.99998 8.61127 5.48609 7.43072 6.45831 6.4585C7.43054 5.48627 8.61109 5.00016 9.99998 5.00016C11.3889 5.00016 12.5694 5.48627 13.5416 6.4585C14.5139 7.43072 15 8.61127 15 10.0002C15 11.3891 14.5139 12.5696 13.5416 13.5418C12.5694 14.5141 11.3889 15.0002 9.99998 15.0002Z" fill="#EEF0F4"/>
</g>
</svg>
