<svg width="20" height="20" viewBox="0 0 20 20" fill="none" xmlns="http://www.w3.org/2000/svg">
<g clip-path="url(#clip0_2717_1871)">
<path opacity="0.991" fill-rule="evenodd" clip-rule="evenodd" d="M9.23827 -0.0195312C9.6419 -0.0195312 10.0456 -0.0195312 10.4492 -0.0195312C12.4139 0.323824 13.7485 1.43059 14.4531 3.30078C15.0687 5.77844 14.307 7.69898 12.168 9.0625C10.7776 9.74187 9.35835 9.80699 7.91014 9.25781C5.83178 8.21836 4.87475 6.53215 5.03905 4.19922C5.29221 2.56611 6.13206 1.33564 7.55858 0.507812C8.09218 0.232209 8.65206 0.0564273 9.23827 -0.0195312Z" fill="#EEF0F4"/>
<path opacity="0.994" fill-rule="evenodd" clip-rule="evenodd" d="M15.3711 19.9807C11.7644 19.9807 8.15756 19.9807 4.5508 19.9807C3.30287 19.8203 2.41094 19.1693 1.87502 18.0276C1.75692 17.7384 1.67879 17.4389 1.64064 17.1291C1.53573 15.6254 1.705 14.1541 2.14845 12.7151C2.43963 11.7998 2.94093 11.025 3.65236 10.3909C4.45361 9.78527 5.35205 9.5509 6.34767 9.68773C6.77748 9.92859 7.19416 10.189 7.59767 10.469C9.08736 11.3334 10.5978 11.3725 12.1289 10.5862C12.6041 10.2769 13.0859 9.97742 13.5742 9.68773C15.176 9.52832 16.3934 10.1338 17.2266 11.5041C17.8516 12.6889 18.2032 13.952 18.2813 15.2932C18.3375 15.9189 18.3375 16.5439 18.2813 17.1682C17.968 18.7862 16.9979 19.7237 15.3711 19.9807Z" fill="#EEF0F4"/>
</g>
<defs>
<clipPath id="clip0_2717_1871">
<rect width="20" height="20" fill="white"/>
</clipPath>
</defs>
</svg>
